<mxfile host="Electron" modified="2023-06-05T21:53:10.157Z" agent="Mozilla/5.0 (Windows NT 10.0; Win64; x64) AppleWebKit/537.36 (KHTML, like Gecko) draw.io/21.1.2 Chrome/106.0.5249.199 Electron/21.4.3 Safari/537.36" etag="-tFyX6HtwCv4aGF9o0vR" version="21.1.2" type="device">
  <diagram name="Страница 1" id="Y6sv0T2BlLeKWLAdWn_h">
    <mxGraphModel dx="1668" dy="1021" grid="1" gridSize="10" guides="1" tooltips="1" connect="1" arrows="1" fold="1" page="1" pageScale="1" pageWidth="1169" pageHeight="827" math="0" shadow="0">
      <root>
        <mxCell id="0" />
        <mxCell id="1" parent="0" />
        <mxCell id="lYXRGoFwwgHIRX3_Q1wA-340" value="&lt;span style=&quot;color: rgb(0, 0, 0); font-family: Helvetica; font-size: 20px; font-style: normal; font-variant-ligatures: normal; font-variant-caps: normal; font-weight: 400; letter-spacing: normal; orphans: 2; text-align: center; text-indent: 0px; text-transform: none; widows: 2; word-spacing: 0px; -webkit-text-stroke-width: 0px; background-color: rgb(251, 251, 251); text-decoration-thickness: initial; text-decoration-style: initial; text-decoration-color: initial; float: none; display: inline !important;&quot;&gt;&#39;j&#39;&lt;/span&gt;" style="text;whiteSpace=wrap;html=1;fontSize=20;" parent="1" vertex="1">
          <mxGeometry x="719.8800000000001" y="515" width="20" height="30" as="geometry" />
        </mxCell>
        <mxCell id="lYXRGoFwwgHIRX3_Q1wA-404" value="&lt;span style=&quot;color: rgb(0, 0, 0); font-family: Helvetica; font-size: 20px; font-style: normal; font-variant-ligatures: normal; font-variant-caps: normal; font-weight: 400; letter-spacing: normal; orphans: 2; text-align: center; text-indent: 0px; text-transform: none; widows: 2; word-spacing: 0px; -webkit-text-stroke-width: 0px; background-color: rgb(251, 251, 251); text-decoration-thickness: initial; text-decoration-style: initial; text-decoration-color: initial; float: none; display: inline !important;&quot;&gt;&#39;.&#39;&lt;/span&gt;" style="text;whiteSpace=wrap;html=1;fontSize=20;" parent="1" vertex="1">
          <mxGeometry x="774.94" y="437" width="10" height="28" as="geometry" />
        </mxCell>
        <mxCell id="Ctn4a2YHSWsJAqv3MHbM-79" value="&lt;span style=&quot;font-family: Helvetica; font-size: 20px; font-style: normal; font-variant-ligatures: normal; font-variant-caps: normal; font-weight: 400; letter-spacing: normal; orphans: 2; text-align: center; text-indent: 0px; text-transform: none; widows: 2; word-spacing: 0px; -webkit-text-stroke-width: 0px; background-color: rgb(251, 251, 251); text-decoration-thickness: initial; text-decoration-style: initial; text-decoration-color: initial; float: none; display: inline !important;&quot;&gt;L/{&#39;a&#39;..&#39;z&#39;, &#39;0&#39;..&#39;9&#39;, &#39;-&#39;, &#39;/&#39;}&lt;br&gt;&lt;/span&gt;" style="text;whiteSpace=wrap;html=1;fontSize=20;fontColor=#b85450;labelBorderColor=none;" vertex="1" parent="1">
          <mxGeometry x="558.38" y="296" width="123.12" height="30" as="geometry" />
        </mxCell>
        <mxCell id="lYXRGoFwwgHIRX3_Q1wA-289" value="&lt;span style=&quot;color: rgb(0, 0, 0); font-family: Helvetica; font-size: 20px; font-style: normal; font-variant-ligatures: normal; font-variant-caps: normal; font-weight: 400; letter-spacing: normal; orphans: 2; text-align: center; text-indent: 0px; text-transform: none; widows: 2; word-spacing: 0px; -webkit-text-stroke-width: 0px; background-color: rgb(251, 251, 251); text-decoration-thickness: initial; text-decoration-style: initial; text-decoration-color: initial; float: none; display: inline !important;&quot;&gt;&#39;0&#39;-&#39;9&#39;&lt;/span&gt;" style="text;whiteSpace=wrap;html=1;fontSize=20;" parent="1" vertex="1">
          <mxGeometry x="919.94" y="215" width="50" height="30" as="geometry" />
        </mxCell>
        <mxCell id="lYXRGoFwwgHIRX3_Q1wA-290" value="&lt;span style=&quot;color: rgb(0, 0, 0); font-family: Helvetica; font-size: 20px; font-style: normal; font-variant-ligatures: normal; font-variant-caps: normal; font-weight: 400; letter-spacing: normal; orphans: 2; text-align: center; text-indent: 0px; text-transform: none; widows: 2; word-spacing: 0px; -webkit-text-stroke-width: 0px; background-color: rgb(251, 251, 251); text-decoration-thickness: initial; text-decoration-style: initial; text-decoration-color: initial; float: none; display: inline !important;&quot;&gt;&#39;a&#39;-&#39;z&#39;&lt;/span&gt;" style="text;whiteSpace=wrap;html=1;fontSize=20;" parent="1" vertex="1">
          <mxGeometry x="919.94" y="187" width="50" height="30" as="geometry" />
        </mxCell>
        <mxCell id="lYXRGoFwwgHIRX3_Q1wA-79" value="&lt;span style=&quot;color: rgb(0, 0, 0); font-family: Helvetica; font-size: 20px; font-style: normal; font-variant-ligatures: normal; font-variant-caps: normal; font-weight: 400; letter-spacing: normal; orphans: 2; text-align: center; text-indent: 0px; text-transform: none; widows: 2; word-spacing: 0px; -webkit-text-stroke-width: 0px; background-color: rgb(251, 251, 251); text-decoration-thickness: initial; text-decoration-style: initial; text-decoration-color: initial; float: none; display: inline !important;&quot;&gt;&#39;0&#39;-&#39;9&#39;&lt;/span&gt;" style="text;whiteSpace=wrap;html=1;fontSize=20;" parent="1" vertex="1">
          <mxGeometry x="629.94" y="202" width="50" height="30" as="geometry" />
        </mxCell>
        <mxCell id="lYXRGoFwwgHIRX3_Q1wA-80" value="&lt;span style=&quot;color: rgb(0, 0, 0); font-family: Helvetica; font-size: 20px; font-style: normal; font-variant-ligatures: normal; font-variant-caps: normal; font-weight: 400; letter-spacing: normal; orphans: 2; text-align: center; text-indent: 0px; text-transform: none; widows: 2; word-spacing: 0px; -webkit-text-stroke-width: 0px; background-color: rgb(251, 251, 251); text-decoration-thickness: initial; text-decoration-style: initial; text-decoration-color: initial; float: none; display: inline !important;&quot;&gt;&#39;a&#39;-&#39;v&#39;&lt;/span&gt;" style="text;whiteSpace=wrap;html=1;fontSize=20;" parent="1" vertex="1">
          <mxGeometry x="629.8199999999999" y="157" width="55.09" height="30" as="geometry" />
        </mxCell>
        <mxCell id="Ctn4a2YHSWsJAqv3MHbM-70" value="&lt;span style=&quot;color: rgb(0, 0, 0); font-family: Helvetica; font-size: 20px; font-style: normal; font-variant-ligatures: normal; font-variant-caps: normal; font-weight: 400; letter-spacing: normal; orphans: 2; text-align: center; text-indent: 0px; text-transform: none; widows: 2; word-spacing: 0px; -webkit-text-stroke-width: 0px; background-color: rgb(251, 251, 251); text-decoration-thickness: initial; text-decoration-style: initial; text-decoration-color: initial; float: none; display: inline !important;&quot;&gt;&#39;x&#39;-&#39;z&#39;&lt;/span&gt;" style="text;whiteSpace=wrap;html=1;fontSize=20;" vertex="1" parent="1">
          <mxGeometry x="629.94" y="181" width="50" height="30" as="geometry" />
        </mxCell>
        <mxCell id="lYXRGoFwwgHIRX3_Q1wA-32" style="edgeStyle=orthogonalEdgeStyle;rounded=0;orthogonalLoop=1;jettySize=auto;html=1;exitX=1;exitY=0.5;exitDx=0;exitDy=0;entryX=0;entryY=0.5;entryDx=0;entryDy=0;fontSize=20;" parent="1" source="lYXRGoFwwgHIRX3_Q1wA-19" target="lYXRGoFwwgHIRX3_Q1wA-21" edge="1">
          <mxGeometry relative="1" as="geometry" />
        </mxCell>
        <mxCell id="Ctn4a2YHSWsJAqv3MHbM-3" style="edgeStyle=orthogonalEdgeStyle;orthogonalLoop=1;jettySize=auto;html=1;exitX=1;exitY=0;exitDx=0;exitDy=0;entryX=0;entryY=0.5;entryDx=0;entryDy=0;curved=1;fillColor=#f8cecc;strokeColor=#b85450;" edge="1" parent="1" source="lYXRGoFwwgHIRX3_Q1wA-19" target="Ctn4a2YHSWsJAqv3MHbM-1">
          <mxGeometry relative="1" as="geometry">
            <Array as="points">
              <mxPoint x="180" y="136" />
              <mxPoint x="180" y="30" />
            </Array>
          </mxGeometry>
        </mxCell>
        <mxCell id="lYXRGoFwwgHIRX3_Q1wA-19" value="1" style="ellipse;whiteSpace=wrap;html=1;aspect=fixed;fontSize=20;" parent="1" vertex="1">
          <mxGeometry x="119.94" y="130" width="40" height="40" as="geometry" />
        </mxCell>
        <mxCell id="lYXRGoFwwgHIRX3_Q1wA-33" style="edgeStyle=orthogonalEdgeStyle;rounded=0;orthogonalLoop=1;jettySize=auto;html=1;exitX=1;exitY=0.5;exitDx=0;exitDy=0;fontSize=20;" parent="1" source="lYXRGoFwwgHIRX3_Q1wA-21" target="lYXRGoFwwgHIRX3_Q1wA-22" edge="1">
          <mxGeometry relative="1" as="geometry" />
        </mxCell>
        <mxCell id="Ctn4a2YHSWsJAqv3MHbM-4" style="edgeStyle=orthogonalEdgeStyle;orthogonalLoop=1;jettySize=auto;html=1;exitX=0.5;exitY=0;exitDx=0;exitDy=0;entryX=0;entryY=1;entryDx=0;entryDy=0;curved=1;fillColor=#f8cecc;strokeColor=#b85450;" edge="1" parent="1" source="lYXRGoFwwgHIRX3_Q1wA-21" target="Ctn4a2YHSWsJAqv3MHbM-1">
          <mxGeometry relative="1" as="geometry" />
        </mxCell>
        <mxCell id="lYXRGoFwwgHIRX3_Q1wA-21" value="2" style="ellipse;whiteSpace=wrap;html=1;aspect=fixed;fontSize=20;" parent="1" vertex="1">
          <mxGeometry x="199.94" y="130" width="40" height="40" as="geometry" />
        </mxCell>
        <mxCell id="lYXRGoFwwgHIRX3_Q1wA-34" style="edgeStyle=orthogonalEdgeStyle;rounded=0;orthogonalLoop=1;jettySize=auto;html=1;exitX=1;exitY=0.5;exitDx=0;exitDy=0;entryX=0;entryY=0.5;entryDx=0;entryDy=0;fontSize=20;" parent="1" source="lYXRGoFwwgHIRX3_Q1wA-22" target="lYXRGoFwwgHIRX3_Q1wA-23" edge="1">
          <mxGeometry relative="1" as="geometry" />
        </mxCell>
        <mxCell id="Ctn4a2YHSWsJAqv3MHbM-5" style="edgeStyle=orthogonalEdgeStyle;orthogonalLoop=1;jettySize=auto;html=1;exitX=0.5;exitY=0;exitDx=0;exitDy=0;entryX=0.5;entryY=1;entryDx=0;entryDy=0;curved=1;fillColor=#f8cecc;strokeColor=#b85450;" edge="1" parent="1" source="lYXRGoFwwgHIRX3_Q1wA-22" target="Ctn4a2YHSWsJAqv3MHbM-1">
          <mxGeometry relative="1" as="geometry" />
        </mxCell>
        <mxCell id="lYXRGoFwwgHIRX3_Q1wA-22" value="3" style="ellipse;whiteSpace=wrap;html=1;aspect=fixed;fontSize=20;" parent="1" vertex="1">
          <mxGeometry x="279.94" y="130" width="40" height="40" as="geometry" />
        </mxCell>
        <mxCell id="lYXRGoFwwgHIRX3_Q1wA-35" style="edgeStyle=orthogonalEdgeStyle;rounded=0;orthogonalLoop=1;jettySize=auto;html=1;exitX=1;exitY=0.5;exitDx=0;exitDy=0;entryX=0;entryY=0.5;entryDx=0;entryDy=0;fontSize=20;" parent="1" source="lYXRGoFwwgHIRX3_Q1wA-23" target="lYXRGoFwwgHIRX3_Q1wA-24" edge="1">
          <mxGeometry relative="1" as="geometry" />
        </mxCell>
        <mxCell id="Ctn4a2YHSWsJAqv3MHbM-6" style="edgeStyle=orthogonalEdgeStyle;orthogonalLoop=1;jettySize=auto;html=1;exitX=0.5;exitY=0;exitDx=0;exitDy=0;entryX=1;entryY=1;entryDx=0;entryDy=0;curved=1;fillColor=#f8cecc;strokeColor=#b85450;" edge="1" parent="1" source="lYXRGoFwwgHIRX3_Q1wA-23" target="Ctn4a2YHSWsJAqv3MHbM-1">
          <mxGeometry relative="1" as="geometry" />
        </mxCell>
        <mxCell id="lYXRGoFwwgHIRX3_Q1wA-23" value="4" style="ellipse;whiteSpace=wrap;html=1;aspect=fixed;fontSize=20;" parent="1" vertex="1">
          <mxGeometry x="359.94" y="130" width="40" height="40" as="geometry" />
        </mxCell>
        <mxCell id="lYXRGoFwwgHIRX3_Q1wA-36" style="edgeStyle=orthogonalEdgeStyle;rounded=0;orthogonalLoop=1;jettySize=auto;html=1;exitX=1;exitY=0.5;exitDx=0;exitDy=0;entryX=0;entryY=0.5;entryDx=0;entryDy=0;fontSize=20;" parent="1" source="lYXRGoFwwgHIRX3_Q1wA-24" target="lYXRGoFwwgHIRX3_Q1wA-25" edge="1">
          <mxGeometry relative="1" as="geometry" />
        </mxCell>
        <mxCell id="Ctn4a2YHSWsJAqv3MHbM-7" style="edgeStyle=orthogonalEdgeStyle;orthogonalLoop=1;jettySize=auto;html=1;exitX=0.5;exitY=0;exitDx=0;exitDy=0;entryX=1;entryY=0.5;entryDx=0;entryDy=0;curved=1;fillColor=#f8cecc;strokeColor=#b85450;" edge="1" parent="1" source="lYXRGoFwwgHIRX3_Q1wA-24" target="Ctn4a2YHSWsJAqv3MHbM-1">
          <mxGeometry relative="1" as="geometry" />
        </mxCell>
        <mxCell id="lYXRGoFwwgHIRX3_Q1wA-24" value="5" style="ellipse;whiteSpace=wrap;html=1;aspect=fixed;fontSize=20;" parent="1" vertex="1">
          <mxGeometry x="439.94" y="130" width="40" height="40" as="geometry" />
        </mxCell>
        <mxCell id="lYXRGoFwwgHIRX3_Q1wA-37" style="edgeStyle=orthogonalEdgeStyle;rounded=0;orthogonalLoop=1;jettySize=auto;html=1;exitX=1;exitY=0.5;exitDx=0;exitDy=0;entryX=0;entryY=0.5;entryDx=0;entryDy=0;fontSize=20;" parent="1" source="lYXRGoFwwgHIRX3_Q1wA-25" target="lYXRGoFwwgHIRX3_Q1wA-26" edge="1">
          <mxGeometry relative="1" as="geometry" />
        </mxCell>
        <mxCell id="lYXRGoFwwgHIRX3_Q1wA-52" style="edgeStyle=orthogonalEdgeStyle;orthogonalLoop=1;jettySize=auto;html=1;exitX=0.5;exitY=0;exitDx=0;exitDy=0;entryX=0;entryY=0.5;entryDx=0;entryDy=0;curved=1;fontSize=20;" parent="1" source="lYXRGoFwwgHIRX3_Q1wA-25" target="lYXRGoFwwgHIRX3_Q1wA-49" edge="1">
          <mxGeometry relative="1" as="geometry" />
        </mxCell>
        <mxCell id="lYXRGoFwwgHIRX3_Q1wA-25" value="6" style="ellipse;whiteSpace=wrap;html=1;aspect=fixed;fontSize=20;" parent="1" vertex="1">
          <mxGeometry x="519.94" y="130" width="40" height="40" as="geometry" />
        </mxCell>
        <mxCell id="lYXRGoFwwgHIRX3_Q1wA-38" style="edgeStyle=orthogonalEdgeStyle;rounded=0;orthogonalLoop=1;jettySize=auto;html=1;exitX=1;exitY=0.5;exitDx=0;exitDy=0;entryX=0;entryY=0.5;entryDx=0;entryDy=0;fontSize=20;" parent="1" source="lYXRGoFwwgHIRX3_Q1wA-26" target="lYXRGoFwwgHIRX3_Q1wA-27" edge="1">
          <mxGeometry relative="1" as="geometry" />
        </mxCell>
        <mxCell id="Ctn4a2YHSWsJAqv3MHbM-18" style="edgeStyle=orthogonalEdgeStyle;orthogonalLoop=1;jettySize=auto;html=1;exitX=1;exitY=0;exitDx=0;exitDy=0;entryX=0.5;entryY=1;entryDx=0;entryDy=0;curved=1;fillColor=#f8cecc;strokeColor=#b85450;" edge="1" parent="1" source="lYXRGoFwwgHIRX3_Q1wA-26" target="Ctn4a2YHSWsJAqv3MHbM-14">
          <mxGeometry relative="1" as="geometry">
            <Array as="points">
              <mxPoint x="634" y="120" />
              <mxPoint x="670" y="120" />
            </Array>
          </mxGeometry>
        </mxCell>
        <mxCell id="lYXRGoFwwgHIRX3_Q1wA-26" value="8" style="ellipse;whiteSpace=wrap;html=1;aspect=fixed;fontSize=20;" parent="1" vertex="1">
          <mxGeometry x="599.94" y="130" width="40" height="40" as="geometry" />
        </mxCell>
        <mxCell id="lYXRGoFwwgHIRX3_Q1wA-39" style="edgeStyle=orthogonalEdgeStyle;rounded=0;orthogonalLoop=1;jettySize=auto;html=1;exitX=1;exitY=0.5;exitDx=0;exitDy=0;entryX=0;entryY=0.5;entryDx=0;entryDy=0;fontSize=20;" parent="1" source="lYXRGoFwwgHIRX3_Q1wA-27" target="lYXRGoFwwgHIRX3_Q1wA-28" edge="1">
          <mxGeometry relative="1" as="geometry" />
        </mxCell>
        <mxCell id="Ctn4a2YHSWsJAqv3MHbM-20" style="edgeStyle=orthogonalEdgeStyle;orthogonalLoop=1;jettySize=auto;html=1;exitX=0.5;exitY=0;exitDx=0;exitDy=0;entryX=1;entryY=0.5;entryDx=0;entryDy=0;curved=1;fillColor=#f8cecc;strokeColor=#b85450;" edge="1" parent="1" source="lYXRGoFwwgHIRX3_Q1wA-27" target="Ctn4a2YHSWsJAqv3MHbM-14">
          <mxGeometry relative="1" as="geometry">
            <Array as="points">
              <mxPoint x="700" y="90" />
              <mxPoint x="740" y="90" />
              <mxPoint x="740" y="30" />
            </Array>
          </mxGeometry>
        </mxCell>
        <mxCell id="lYXRGoFwwgHIRX3_Q1wA-27" value="9" style="ellipse;whiteSpace=wrap;html=1;aspect=fixed;fontSize=20;" parent="1" vertex="1">
          <mxGeometry x="679.94" y="130" width="40" height="40" as="geometry" />
        </mxCell>
        <mxCell id="lYXRGoFwwgHIRX3_Q1wA-40" style="edgeStyle=orthogonalEdgeStyle;rounded=0;orthogonalLoop=1;jettySize=auto;html=1;exitX=1;exitY=0.5;exitDx=0;exitDy=0;fontSize=20;" parent="1" source="lYXRGoFwwgHIRX3_Q1wA-28" target="lYXRGoFwwgHIRX3_Q1wA-29" edge="1">
          <mxGeometry relative="1" as="geometry" />
        </mxCell>
        <mxCell id="Ctn4a2YHSWsJAqv3MHbM-12" style="edgeStyle=orthogonalEdgeStyle;orthogonalLoop=1;jettySize=auto;html=1;exitX=0.5;exitY=0;exitDx=0;exitDy=0;entryX=0;entryY=0.5;entryDx=0;entryDy=0;curved=1;fillColor=#f8cecc;strokeColor=#b85450;" edge="1" parent="1" source="lYXRGoFwwgHIRX3_Q1wA-28" target="Ctn4a2YHSWsJAqv3MHbM-8">
          <mxGeometry relative="1" as="geometry" />
        </mxCell>
        <mxCell id="lYXRGoFwwgHIRX3_Q1wA-28" value="10" style="ellipse;whiteSpace=wrap;html=1;aspect=fixed;fontSize=20;" parent="1" vertex="1">
          <mxGeometry x="759.94" y="130" width="40" height="40" as="geometry" />
        </mxCell>
        <mxCell id="lYXRGoFwwgHIRX3_Q1wA-41" style="edgeStyle=orthogonalEdgeStyle;rounded=0;orthogonalLoop=1;jettySize=auto;html=1;exitX=1;exitY=0.5;exitDx=0;exitDy=0;entryX=0;entryY=0.5;entryDx=0;entryDy=0;fontSize=20;" parent="1" source="lYXRGoFwwgHIRX3_Q1wA-29" target="lYXRGoFwwgHIRX3_Q1wA-30" edge="1">
          <mxGeometry relative="1" as="geometry" />
        </mxCell>
        <mxCell id="Ctn4a2YHSWsJAqv3MHbM-10" style="edgeStyle=orthogonalEdgeStyle;orthogonalLoop=1;jettySize=auto;html=1;exitX=0.5;exitY=0;exitDx=0;exitDy=0;entryX=0;entryY=1;entryDx=0;entryDy=0;curved=1;fillColor=#f8cecc;strokeColor=#b85450;" edge="1" parent="1" source="lYXRGoFwwgHIRX3_Q1wA-29" target="Ctn4a2YHSWsJAqv3MHbM-8">
          <mxGeometry relative="1" as="geometry" />
        </mxCell>
        <mxCell id="lYXRGoFwwgHIRX3_Q1wA-29" value="11" style="ellipse;whiteSpace=wrap;html=1;aspect=fixed;fontSize=20;" parent="1" vertex="1">
          <mxGeometry x="839.94" y="130" width="40" height="40" as="geometry" />
        </mxCell>
        <mxCell id="lYXRGoFwwgHIRX3_Q1wA-42" style="edgeStyle=orthogonalEdgeStyle;rounded=0;orthogonalLoop=1;jettySize=auto;html=1;exitX=1;exitY=0.5;exitDx=0;exitDy=0;fontSize=20;" parent="1" source="lYXRGoFwwgHIRX3_Q1wA-30" target="lYXRGoFwwgHIRX3_Q1wA-31" edge="1">
          <mxGeometry relative="1" as="geometry" />
        </mxCell>
        <mxCell id="Ctn4a2YHSWsJAqv3MHbM-9" style="edgeStyle=orthogonalEdgeStyle;orthogonalLoop=1;jettySize=auto;html=1;exitX=0.5;exitY=0;exitDx=0;exitDy=0;entryX=0.5;entryY=1;entryDx=0;entryDy=0;curved=1;fillColor=#f8cecc;strokeColor=#b85450;" edge="1" parent="1" source="lYXRGoFwwgHIRX3_Q1wA-30" target="Ctn4a2YHSWsJAqv3MHbM-8">
          <mxGeometry relative="1" as="geometry" />
        </mxCell>
        <mxCell id="lYXRGoFwwgHIRX3_Q1wA-30" value="12" style="ellipse;whiteSpace=wrap;html=1;aspect=fixed;fontSize=20;" parent="1" vertex="1">
          <mxGeometry x="919.94" y="130" width="40" height="40" as="geometry" />
        </mxCell>
        <mxCell id="lYXRGoFwwgHIRX3_Q1wA-62" style="edgeStyle=orthogonalEdgeStyle;rounded=0;orthogonalLoop=1;jettySize=auto;html=1;exitX=1;exitY=0.5;exitDx=0;exitDy=0;entryX=0;entryY=0.5;entryDx=0;entryDy=0;fontSize=20;" parent="1" source="lYXRGoFwwgHIRX3_Q1wA-31" target="lYXRGoFwwgHIRX3_Q1wA-61" edge="1">
          <mxGeometry relative="1" as="geometry" />
        </mxCell>
        <mxCell id="Ctn4a2YHSWsJAqv3MHbM-11" style="edgeStyle=orthogonalEdgeStyle;orthogonalLoop=1;jettySize=auto;html=1;exitX=0.5;exitY=0;exitDx=0;exitDy=0;entryX=1;entryY=1;entryDx=0;entryDy=0;curved=1;fillColor=#f8cecc;strokeColor=#b85450;" edge="1" parent="1" source="lYXRGoFwwgHIRX3_Q1wA-31" target="Ctn4a2YHSWsJAqv3MHbM-8">
          <mxGeometry relative="1" as="geometry" />
        </mxCell>
        <mxCell id="lYXRGoFwwgHIRX3_Q1wA-31" value="13" style="ellipse;whiteSpace=wrap;html=1;aspect=fixed;fontSize=20;" parent="1" vertex="1">
          <mxGeometry x="999.94" y="130" width="40" height="40" as="geometry" />
        </mxCell>
        <mxCell id="lYXRGoFwwgHIRX3_Q1wA-43" value="&lt;span style=&quot;color: rgb(0, 0, 0); font-family: Helvetica; font-size: 20px; font-style: normal; font-variant-ligatures: normal; font-variant-caps: normal; font-weight: 400; letter-spacing: normal; orphans: 2; text-align: center; text-indent: 0px; text-transform: none; widows: 2; word-spacing: 0px; -webkit-text-stroke-width: 0px; background-color: rgb(251, 251, 251); text-decoration-thickness: initial; text-decoration-style: initial; text-decoration-color: initial; float: none; display: inline !important;&quot;&gt;&#39;&quot;&#39;&lt;/span&gt;" style="text;whiteSpace=wrap;html=1;fontSize=20;" parent="1" vertex="1">
          <mxGeometry x="169.94" y="118" width="20" height="30" as="geometry" />
        </mxCell>
        <mxCell id="lYXRGoFwwgHIRX3_Q1wA-44" value="&lt;span style=&quot;color: rgb(0, 0, 0); font-family: Helvetica; font-size: 20px; font-style: normal; font-variant-ligatures: normal; font-variant-caps: normal; font-weight: 400; letter-spacing: normal; orphans: 2; text-align: center; text-indent: 0px; text-transform: none; widows: 2; word-spacing: 0px; -webkit-text-stroke-width: 0px; background-color: rgb(251, 251, 251); text-decoration-thickness: initial; text-decoration-style: initial; text-decoration-color: initial; float: none; display: inline !important;&quot;&gt;&#39;h&#39;&lt;/span&gt;" style="text;whiteSpace=wrap;html=1;fontSize=20;" parent="1" vertex="1">
          <mxGeometry x="249.94" y="118" width="20" height="30" as="geometry" />
        </mxCell>
        <mxCell id="lYXRGoFwwgHIRX3_Q1wA-45" value="&lt;span style=&quot;color: rgb(0, 0, 0); font-family: Helvetica; font-size: 20px; font-style: normal; font-variant-ligatures: normal; font-variant-caps: normal; font-weight: 400; letter-spacing: normal; orphans: 2; text-align: center; text-indent: 0px; text-transform: none; widows: 2; word-spacing: 0px; -webkit-text-stroke-width: 0px; background-color: rgb(251, 251, 251); text-decoration-thickness: initial; text-decoration-style: initial; text-decoration-color: initial; float: none; display: inline !important;&quot;&gt;&#39;t&#39;&lt;/span&gt;" style="text;whiteSpace=wrap;html=1;fontSize=20;" parent="1" vertex="1">
          <mxGeometry x="329.94" y="118" width="20" height="30" as="geometry" />
        </mxCell>
        <mxCell id="lYXRGoFwwgHIRX3_Q1wA-46" value="&lt;span style=&quot;color: rgb(0, 0, 0); font-family: Helvetica; font-size: 20px; font-style: normal; font-variant-ligatures: normal; font-variant-caps: normal; font-weight: 400; letter-spacing: normal; orphans: 2; text-align: center; text-indent: 0px; text-transform: none; widows: 2; word-spacing: 0px; -webkit-text-stroke-width: 0px; background-color: rgb(251, 251, 251); text-decoration-thickness: initial; text-decoration-style: initial; text-decoration-color: initial; float: none; display: inline !important;&quot;&gt;&#39;t&#39;&lt;/span&gt;" style="text;whiteSpace=wrap;html=1;fontSize=20;" parent="1" vertex="1">
          <mxGeometry x="409.94" y="118" width="20" height="30" as="geometry" />
        </mxCell>
        <mxCell id="lYXRGoFwwgHIRX3_Q1wA-47" value="&lt;span style=&quot;color: rgb(0, 0, 0); font-family: Helvetica; font-size: 20px; font-style: normal; font-variant-ligatures: normal; font-variant-caps: normal; font-weight: 400; letter-spacing: normal; orphans: 2; text-align: center; text-indent: 0px; text-transform: none; widows: 2; word-spacing: 0px; -webkit-text-stroke-width: 0px; background-color: rgb(251, 251, 251); text-decoration-thickness: initial; text-decoration-style: initial; text-decoration-color: initial; float: none; display: inline !important;&quot;&gt;&#39;p&#39;&lt;/span&gt;" style="text;whiteSpace=wrap;html=1;fontSize=20;" parent="1" vertex="1">
          <mxGeometry x="489.94" y="118" width="20" height="30" as="geometry" />
        </mxCell>
        <mxCell id="lYXRGoFwwgHIRX3_Q1wA-48" value="&lt;span style=&quot;color: rgb(0, 0, 0); font-family: Helvetica; font-size: 20px; font-style: normal; font-variant-ligatures: normal; font-variant-caps: normal; font-weight: 400; letter-spacing: normal; orphans: 2; text-align: center; text-indent: 0px; text-transform: none; widows: 2; word-spacing: 0px; -webkit-text-stroke-width: 0px; background-color: rgb(251, 251, 251); text-decoration-thickness: initial; text-decoration-style: initial; text-decoration-color: initial; float: none; display: inline !important;&quot;&gt;&#39;:&#39;&lt;/span&gt;" style="text;whiteSpace=wrap;html=1;fontSize=20;" parent="1" vertex="1">
          <mxGeometry x="569.94" y="118" width="20" height="30" as="geometry" />
        </mxCell>
        <mxCell id="lYXRGoFwwgHIRX3_Q1wA-53" style="edgeStyle=orthogonalEdgeStyle;orthogonalLoop=1;jettySize=auto;html=1;exitX=1;exitY=0.5;exitDx=0;exitDy=0;entryX=0.5;entryY=0;entryDx=0;entryDy=0;curved=1;fontSize=20;" parent="1" source="lYXRGoFwwgHIRX3_Q1wA-49" target="lYXRGoFwwgHIRX3_Q1wA-26" edge="1">
          <mxGeometry relative="1" as="geometry" />
        </mxCell>
        <mxCell id="Ctn4a2YHSWsJAqv3MHbM-16" style="edgeStyle=orthogonalEdgeStyle;orthogonalLoop=1;jettySize=auto;html=1;exitX=0.5;exitY=0;exitDx=0;exitDy=0;entryX=0;entryY=1;entryDx=0;entryDy=0;curved=1;fillColor=#f8cecc;strokeColor=#b85450;" edge="1" parent="1" source="lYXRGoFwwgHIRX3_Q1wA-49" target="Ctn4a2YHSWsJAqv3MHbM-14">
          <mxGeometry relative="1" as="geometry">
            <Array as="points">
              <mxPoint x="580" y="60" />
              <mxPoint x="656" y="60" />
            </Array>
          </mxGeometry>
        </mxCell>
        <mxCell id="lYXRGoFwwgHIRX3_Q1wA-49" value="7" style="ellipse;whiteSpace=wrap;html=1;aspect=fixed;fontSize=20;" parent="1" vertex="1">
          <mxGeometry x="559.94" y="70" width="40" height="40" as="geometry" />
        </mxCell>
        <mxCell id="lYXRGoFwwgHIRX3_Q1wA-54" value="&lt;span style=&quot;color: rgb(0, 0, 0); font-family: Helvetica; font-size: 20px; font-style: normal; font-variant-ligatures: normal; font-variant-caps: normal; font-weight: 400; letter-spacing: normal; orphans: 2; text-align: center; text-indent: 0px; text-transform: none; widows: 2; word-spacing: 0px; -webkit-text-stroke-width: 0px; background-color: rgb(251, 251, 251); text-decoration-thickness: initial; text-decoration-style: initial; text-decoration-color: initial; float: none; display: inline !important;&quot;&gt;&#39;:&#39;&lt;/span&gt;" style="text;whiteSpace=wrap;html=1;fontSize=20;" parent="1" vertex="1">
          <mxGeometry x="624.94" y="80" width="20" height="30" as="geometry" />
        </mxCell>
        <mxCell id="lYXRGoFwwgHIRX3_Q1wA-55" value="&lt;span style=&quot;color: rgb(0, 0, 0); font-family: Helvetica; font-size: 20px; font-style: normal; font-variant-ligatures: normal; font-variant-caps: normal; font-weight: 400; letter-spacing: normal; orphans: 2; text-align: center; text-indent: 0px; text-transform: none; widows: 2; word-spacing: 0px; -webkit-text-stroke-width: 0px; background-color: rgb(251, 251, 251); text-decoration-thickness: initial; text-decoration-style: initial; text-decoration-color: initial; float: none; display: inline !important;&quot;&gt;&#39;s&#39;&lt;/span&gt;" style="text;whiteSpace=wrap;html=1;fontSize=20;" parent="1" vertex="1">
          <mxGeometry x="519.94" y="80" width="20" height="30" as="geometry" />
        </mxCell>
        <mxCell id="lYXRGoFwwgHIRX3_Q1wA-56" value="&lt;span style=&quot;color: rgb(0, 0, 0); font-family: Helvetica; font-size: 20px; font-style: normal; font-variant-ligatures: normal; font-variant-caps: normal; font-weight: 400; letter-spacing: normal; orphans: 2; text-align: center; text-indent: 0px; text-transform: none; widows: 2; word-spacing: 0px; -webkit-text-stroke-width: 0px; background-color: rgb(251, 251, 251); text-decoration-thickness: initial; text-decoration-style: initial; text-decoration-color: initial; float: none; display: inline !important;&quot;&gt;&#39;/&#39;&lt;/span&gt;" style="text;whiteSpace=wrap;html=1;fontSize=20;" parent="1" vertex="1">
          <mxGeometry x="649.94" y="118" width="10" height="30" as="geometry" />
        </mxCell>
        <mxCell id="lYXRGoFwwgHIRX3_Q1wA-57" value="&lt;span style=&quot;color: rgb(0, 0, 0); font-family: Helvetica; font-size: 20px; font-style: normal; font-variant-ligatures: normal; font-variant-caps: normal; font-weight: 400; letter-spacing: normal; orphans: 2; text-align: center; text-indent: 0px; text-transform: none; widows: 2; word-spacing: 0px; -webkit-text-stroke-width: 0px; background-color: rgb(251, 251, 251); text-decoration-thickness: initial; text-decoration-style: initial; text-decoration-color: initial; float: none; display: inline !important;&quot;&gt;&#39;/&#39;&lt;/span&gt;" style="text;whiteSpace=wrap;html=1;fontSize=20;" parent="1" vertex="1">
          <mxGeometry x="729.94" y="118" width="10" height="30" as="geometry" />
        </mxCell>
        <mxCell id="lYXRGoFwwgHIRX3_Q1wA-58" value="&lt;span style=&quot;color: rgb(0, 0, 0); font-family: Helvetica; font-size: 20px; font-style: normal; font-variant-ligatures: normal; font-variant-caps: normal; font-weight: 400; letter-spacing: normal; orphans: 2; text-align: center; text-indent: 0px; text-transform: none; widows: 2; word-spacing: 0px; -webkit-text-stroke-width: 0px; background-color: rgb(251, 251, 251); text-decoration-thickness: initial; text-decoration-style: initial; text-decoration-color: initial; float: none; display: inline !important;&quot;&gt;&#39;w&#39;&lt;/span&gt;" style="text;whiteSpace=wrap;html=1;fontSize=20;" parent="1" vertex="1">
          <mxGeometry x="806.94" y="118" width="20" height="30" as="geometry" />
        </mxCell>
        <mxCell id="lYXRGoFwwgHIRX3_Q1wA-59" value="&lt;span style=&quot;color: rgb(0, 0, 0); font-family: Helvetica; font-size: 20px; font-style: normal; font-variant-ligatures: normal; font-variant-caps: normal; font-weight: 400; letter-spacing: normal; orphans: 2; text-align: center; text-indent: 0px; text-transform: none; widows: 2; word-spacing: 0px; -webkit-text-stroke-width: 0px; background-color: rgb(251, 251, 251); text-decoration-thickness: initial; text-decoration-style: initial; text-decoration-color: initial; float: none; display: inline !important;&quot;&gt;&#39;w&#39;&lt;/span&gt;" style="text;whiteSpace=wrap;html=1;fontSize=20;" parent="1" vertex="1">
          <mxGeometry x="886.94" y="118" width="20" height="30" as="geometry" />
        </mxCell>
        <mxCell id="lYXRGoFwwgHIRX3_Q1wA-60" value="&lt;span style=&quot;color: rgb(0, 0, 0); font-family: Helvetica; font-size: 20px; font-style: normal; font-variant-ligatures: normal; font-variant-caps: normal; font-weight: 400; letter-spacing: normal; orphans: 2; text-align: center; text-indent: 0px; text-transform: none; widows: 2; word-spacing: 0px; -webkit-text-stroke-width: 0px; background-color: rgb(251, 251, 251); text-decoration-thickness: initial; text-decoration-style: initial; text-decoration-color: initial; float: none; display: inline !important;&quot;&gt;&#39;w&#39;&lt;/span&gt;" style="text;whiteSpace=wrap;html=1;fontSize=20;" parent="1" vertex="1">
          <mxGeometry x="966.94" y="118" width="20" height="30" as="geometry" />
        </mxCell>
        <mxCell id="lYXRGoFwwgHIRX3_Q1wA-78" style="edgeStyle=orthogonalEdgeStyle;orthogonalLoop=1;jettySize=auto;html=1;exitX=0.5;exitY=1;exitDx=0;exitDy=0;entryX=1;entryY=0.5;entryDx=0;entryDy=0;curved=1;fontSize=20;" parent="1" source="lYXRGoFwwgHIRX3_Q1wA-61" target="lYXRGoFwwgHIRX3_Q1wA-76" edge="1">
          <mxGeometry relative="1" as="geometry" />
        </mxCell>
        <mxCell id="Ctn4a2YHSWsJAqv3MHbM-13" style="edgeStyle=orthogonalEdgeStyle;orthogonalLoop=1;jettySize=auto;html=1;exitX=0.5;exitY=0;exitDx=0;exitDy=0;entryX=1;entryY=0.5;entryDx=0;entryDy=0;curved=1;fillColor=#f8cecc;strokeColor=#b85450;" edge="1" parent="1" source="lYXRGoFwwgHIRX3_Q1wA-61" target="Ctn4a2YHSWsJAqv3MHbM-8">
          <mxGeometry relative="1" as="geometry" />
        </mxCell>
        <mxCell id="lYXRGoFwwgHIRX3_Q1wA-61" value="14" style="ellipse;whiteSpace=wrap;html=1;aspect=fixed;fontSize=20;" parent="1" vertex="1">
          <mxGeometry x="1079.94" y="130" width="40" height="40" as="geometry" />
        </mxCell>
        <mxCell id="lYXRGoFwwgHIRX3_Q1wA-63" value="&lt;span style=&quot;color: rgb(0, 0, 0); font-family: Helvetica; font-size: 20px; font-style: normal; font-variant-ligatures: normal; font-variant-caps: normal; font-weight: 400; letter-spacing: normal; orphans: 2; text-align: center; text-indent: 0px; text-transform: none; widows: 2; word-spacing: 0px; -webkit-text-stroke-width: 0px; background-color: rgb(251, 251, 251); text-decoration-thickness: initial; text-decoration-style: initial; text-decoration-color: initial; float: none; display: inline !important;&quot;&gt;&#39;.&#39;&lt;/span&gt;" style="text;whiteSpace=wrap;html=1;fontSize=20;" parent="1" vertex="1">
          <mxGeometry x="1049.94" y="118" width="20" height="30" as="geometry" />
        </mxCell>
        <mxCell id="lYXRGoFwwgHIRX3_Q1wA-76" value="15" style="ellipse;whiteSpace=wrap;html=1;aspect=fixed;fontSize=20;" parent="1" vertex="1">
          <mxGeometry x="559.94" y="210" width="40" height="40" as="geometry" />
        </mxCell>
        <mxCell id="lYXRGoFwwgHIRX3_Q1wA-99" value="&lt;span style=&quot;color: rgb(0, 0, 0); font-family: Helvetica; font-size: 20px; font-style: normal; font-variant-ligatures: normal; font-variant-caps: normal; font-weight: 400; letter-spacing: normal; orphans: 2; text-align: center; text-indent: 0px; text-transform: none; widows: 2; word-spacing: 0px; -webkit-text-stroke-width: 0px; background-color: rgb(251, 251, 251); text-decoration-thickness: initial; text-decoration-style: initial; text-decoration-color: initial; float: none; display: inline !important;&quot;&gt;&#39;a&#39;-&#39;z&#39;&lt;/span&gt;" style="text;whiteSpace=wrap;html=1;fontSize=20;" parent="1" vertex="1">
          <mxGeometry x="474.94" y="157" width="50" height="30" as="geometry" />
        </mxCell>
        <mxCell id="lYXRGoFwwgHIRX3_Q1wA-100" value="&lt;span style=&quot;color: rgb(0, 0, 0); font-family: Helvetica; font-size: 20px; font-style: normal; font-variant-ligatures: normal; font-variant-caps: normal; font-weight: 400; letter-spacing: normal; orphans: 2; text-align: center; text-indent: 0px; text-transform: none; widows: 2; word-spacing: 0px; -webkit-text-stroke-width: 0px; background-color: rgb(251, 251, 251); text-decoration-thickness: initial; text-decoration-style: initial; text-decoration-color: initial; float: none; display: inline !important;&quot;&gt;&#39;0&#39;-&#39;9&#39;&lt;/span&gt;" style="text;whiteSpace=wrap;html=1;fontSize=20;" parent="1" vertex="1">
          <mxGeometry x="474.94" y="181" width="50" height="30" as="geometry" />
        </mxCell>
        <mxCell id="lYXRGoFwwgHIRX3_Q1wA-101" value="&lt;div style=&quot;text-align: center; font-size: 20px;&quot;&gt;&lt;span style=&quot;background-color: initial; font-size: 20px;&quot;&gt;&#39;-&#39;&lt;/span&gt;&lt;/div&gt;" style="text;whiteSpace=wrap;html=1;fontSize=20;" parent="1" vertex="1">
          <mxGeometry x="489.44" y="202" width="21" height="30" as="geometry" />
        </mxCell>
        <mxCell id="lYXRGoFwwgHIRX3_Q1wA-265" style="edgeStyle=orthogonalEdgeStyle;orthogonalLoop=1;jettySize=auto;html=1;exitX=0.5;exitY=1;exitDx=0;exitDy=0;entryX=0;entryY=0.5;entryDx=0;entryDy=0;curved=1;fontSize=20;" parent="1" source="lYXRGoFwwgHIRX3_Q1wA-113" target="lYXRGoFwwgHIRX3_Q1wA-244" edge="1">
          <mxGeometry relative="1" as="geometry" />
        </mxCell>
        <mxCell id="Ctn4a2YHSWsJAqv3MHbM-29" style="edgeStyle=orthogonalEdgeStyle;orthogonalLoop=1;jettySize=auto;html=1;exitX=0;exitY=1;exitDx=0;exitDy=0;entryX=0.5;entryY=1;entryDx=0;entryDy=0;curved=1;fillColor=#f8cecc;strokeColor=#b85450;" edge="1" parent="1" source="lYXRGoFwwgHIRX3_Q1wA-113" target="Ctn4a2YHSWsJAqv3MHbM-27">
          <mxGeometry relative="1" as="geometry">
            <Array as="points">
              <mxPoint x="100" y="366" />
              <mxPoint x="100" y="650" />
            </Array>
          </mxGeometry>
        </mxCell>
        <mxCell id="lYXRGoFwwgHIRX3_Q1wA-113" value="16" style="ellipse;whiteSpace=wrap;html=1;aspect=fixed;fontSize=20;" parent="1" vertex="1">
          <mxGeometry x="119.94" y="332" width="40" height="40" as="geometry" />
        </mxCell>
        <mxCell id="lYXRGoFwwgHIRX3_Q1wA-226" style="edgeStyle=orthogonalEdgeStyle;rounded=0;orthogonalLoop=1;jettySize=auto;html=1;exitX=1;exitY=0.5;exitDx=0;exitDy=0;entryX=0;entryY=0.5;entryDx=0;entryDy=0;fontSize=20;" parent="1" source="lYXRGoFwwgHIRX3_Q1wA-113" target="lYXRGoFwwgHIRX3_Q1wA-229" edge="1">
          <mxGeometry relative="1" as="geometry">
            <mxPoint x="319.9399999999965" y="352" as="sourcePoint" />
          </mxGeometry>
        </mxCell>
        <mxCell id="lYXRGoFwwgHIRX3_Q1wA-228" style="edgeStyle=orthogonalEdgeStyle;rounded=0;orthogonalLoop=1;jettySize=auto;html=1;exitX=1;exitY=0.5;exitDx=0;exitDy=0;fontSize=20;" parent="1" source="lYXRGoFwwgHIRX3_Q1wA-229" target="lYXRGoFwwgHIRX3_Q1wA-231" edge="1">
          <mxGeometry relative="1" as="geometry" />
        </mxCell>
        <mxCell id="lYXRGoFwwgHIRX3_Q1wA-312" style="edgeStyle=orthogonalEdgeStyle;orthogonalLoop=1;jettySize=auto;html=1;exitX=0.5;exitY=0;exitDx=0;exitDy=0;entryX=1;entryY=0;entryDx=0;entryDy=0;curved=1;fontSize=20;" parent="1" source="lYXRGoFwwgHIRX3_Q1wA-229" target="lYXRGoFwwgHIRX3_Q1wA-113" edge="1">
          <mxGeometry relative="1" as="geometry">
            <Array as="points">
              <mxPoint x="299.94" y="312" />
              <mxPoint x="153.94" y="312" />
            </Array>
          </mxGeometry>
        </mxCell>
        <mxCell id="Ctn4a2YHSWsJAqv3MHbM-30" style="edgeStyle=orthogonalEdgeStyle;orthogonalLoop=1;jettySize=auto;html=1;exitX=1;exitY=1;exitDx=0;exitDy=0;entryX=0;entryY=0.5;entryDx=0;entryDy=0;curved=1;fillColor=#f8cecc;strokeColor=#b85450;" edge="1" parent="1" source="lYXRGoFwwgHIRX3_Q1wA-229" target="Ctn4a2YHSWsJAqv3MHbM-27">
          <mxGeometry relative="1" as="geometry">
            <Array as="points">
              <mxPoint x="320" y="366" />
              <mxPoint x="320" y="600" />
              <mxPoint x="230" y="600" />
            </Array>
          </mxGeometry>
        </mxCell>
        <mxCell id="lYXRGoFwwgHIRX3_Q1wA-229" value="17" style="ellipse;whiteSpace=wrap;html=1;aspect=fixed;fontSize=20;" parent="1" vertex="1">
          <mxGeometry x="279.94" y="332" width="40" height="40" as="geometry" />
        </mxCell>
        <mxCell id="lYXRGoFwwgHIRX3_Q1wA-230" style="edgeStyle=orthogonalEdgeStyle;rounded=0;orthogonalLoop=1;jettySize=auto;html=1;exitX=1;exitY=0.5;exitDx=0;exitDy=0;entryX=0;entryY=0.5;entryDx=0;entryDy=0;fontSize=20;" parent="1" source="lYXRGoFwwgHIRX3_Q1wA-231" target="lYXRGoFwwgHIRX3_Q1wA-232" edge="1">
          <mxGeometry relative="1" as="geometry" />
        </mxCell>
        <mxCell id="lYXRGoFwwgHIRX3_Q1wA-246" style="edgeStyle=orthogonalEdgeStyle;rounded=0;orthogonalLoop=1;jettySize=auto;html=1;exitX=0.5;exitY=1;exitDx=0;exitDy=0;fontSize=20;" parent="1" source="lYXRGoFwwgHIRX3_Q1wA-231" target="lYXRGoFwwgHIRX3_Q1wA-244" edge="1">
          <mxGeometry relative="1" as="geometry" />
        </mxCell>
        <mxCell id="lYXRGoFwwgHIRX3_Q1wA-313" style="edgeStyle=orthogonalEdgeStyle;orthogonalLoop=1;jettySize=auto;html=1;exitX=0.5;exitY=0;exitDx=0;exitDy=0;entryX=0.5;entryY=0;entryDx=0;entryDy=0;curved=1;fontSize=20;" parent="1" source="lYXRGoFwwgHIRX3_Q1wA-231" target="lYXRGoFwwgHIRX3_Q1wA-113" edge="1">
          <mxGeometry relative="1" as="geometry">
            <Array as="points">
              <mxPoint x="419.94" y="290" />
              <mxPoint x="139.94" y="290" />
            </Array>
          </mxGeometry>
        </mxCell>
        <mxCell id="Ctn4a2YHSWsJAqv3MHbM-32" style="edgeStyle=orthogonalEdgeStyle;orthogonalLoop=1;jettySize=auto;html=1;exitX=1;exitY=1;exitDx=0;exitDy=0;entryX=1;entryY=0.5;entryDx=0;entryDy=0;curved=1;fillColor=#f8cecc;strokeColor=#b85450;" edge="1" parent="1" source="lYXRGoFwwgHIRX3_Q1wA-231" target="Ctn4a2YHSWsJAqv3MHbM-27">
          <mxGeometry relative="1" as="geometry">
            <Array as="points">
              <mxPoint x="434" y="430" />
              <mxPoint x="530" y="430" />
              <mxPoint x="530" y="710" />
              <mxPoint x="230" y="710" />
            </Array>
          </mxGeometry>
        </mxCell>
        <mxCell id="lYXRGoFwwgHIRX3_Q1wA-231" value="18" style="ellipse;whiteSpace=wrap;html=1;aspect=fixed;fontSize=20;" parent="1" vertex="1">
          <mxGeometry x="399.94" y="332" width="40" height="40" as="geometry" />
        </mxCell>
        <mxCell id="lYXRGoFwwgHIRX3_Q1wA-318" style="edgeStyle=orthogonalEdgeStyle;rounded=0;orthogonalLoop=1;jettySize=auto;html=1;exitX=1;exitY=0.5;exitDx=0;exitDy=0;fontSize=20;entryX=0;entryY=0.5;entryDx=0;entryDy=0;" parent="1" source="lYXRGoFwwgHIRX3_Q1wA-232" target="lYXRGoFwwgHIRX3_Q1wA-407" edge="1">
          <mxGeometry relative="1" as="geometry">
            <mxPoint x="679.9400000000251" y="352" as="targetPoint" />
          </mxGeometry>
        </mxCell>
        <mxCell id="Ctn4a2YHSWsJAqv3MHbM-24" style="edgeStyle=orthogonalEdgeStyle;orthogonalLoop=1;jettySize=auto;html=1;exitX=0.5;exitY=0;exitDx=0;exitDy=0;entryX=0.5;entryY=1;entryDx=0;entryDy=0;curved=1;fillColor=#f8cecc;strokeColor=#b85450;" edge="1" parent="1" source="lYXRGoFwwgHIRX3_Q1wA-232" target="Ctn4a2YHSWsJAqv3MHbM-21">
          <mxGeometry relative="1" as="geometry" />
        </mxCell>
        <mxCell id="lYXRGoFwwgHIRX3_Q1wA-232" value="20" style="ellipse;whiteSpace=wrap;html=1;aspect=fixed;fontSize=20;" parent="1" vertex="1">
          <mxGeometry x="519.94" y="332" width="40" height="40" as="geometry" />
        </mxCell>
        <mxCell id="lYXRGoFwwgHIRX3_Q1wA-233" value="&lt;span style=&quot;color: rgb(0, 0, 0); font-family: Helvetica; font-size: 20px; font-style: normal; font-variant-ligatures: normal; font-variant-caps: normal; font-weight: 400; letter-spacing: normal; orphans: 2; text-align: center; text-indent: 0px; text-transform: none; widows: 2; word-spacing: 0px; -webkit-text-stroke-width: 0px; background-color: rgb(251, 251, 251); text-decoration-thickness: initial; text-decoration-style: initial; text-decoration-color: initial; float: none; display: inline !important;&quot;&gt;&#39;c&#39;&lt;/span&gt;" style="text;whiteSpace=wrap;html=1;fontSize=20;" parent="1" vertex="1">
          <mxGeometry x="219.94" y="318" width="20" height="30" as="geometry" />
        </mxCell>
        <mxCell id="lYXRGoFwwgHIRX3_Q1wA-234" value="&lt;span style=&quot;color: rgb(0, 0, 0); font-family: Helvetica; font-size: 20px; font-style: normal; font-variant-ligatures: normal; font-variant-caps: normal; font-weight: 400; letter-spacing: normal; orphans: 2; text-align: center; text-indent: 0px; text-transform: none; widows: 2; word-spacing: 0px; -webkit-text-stroke-width: 0px; background-color: rgb(251, 251, 251); text-decoration-thickness: initial; text-decoration-style: initial; text-decoration-color: initial; float: none; display: inline !important;&quot;&gt;&#39;o&#39;&lt;/span&gt;" style="text;whiteSpace=wrap;html=1;fontSize=20;" parent="1" vertex="1">
          <mxGeometry x="349.94" y="318" width="20" height="30" as="geometry" />
        </mxCell>
        <mxCell id="lYXRGoFwwgHIRX3_Q1wA-235" value="&lt;div style=&quot;text-align: center; font-size: 20px;&quot;&gt;&lt;span style=&quot;background-color: initial; font-size: 20px;&quot;&gt;&#39;m&#39;&lt;/span&gt;&lt;/div&gt;" style="text;whiteSpace=wrap;html=1;fontSize=20;" parent="1" vertex="1">
          <mxGeometry x="469.94" y="318" width="30" height="30" as="geometry" />
        </mxCell>
        <mxCell id="Ctn4a2YHSWsJAqv3MHbM-31" style="edgeStyle=orthogonalEdgeStyle;orthogonalLoop=1;jettySize=auto;html=1;exitX=0.5;exitY=1;exitDx=0;exitDy=0;entryX=0.5;entryY=0;entryDx=0;entryDy=0;curved=1;fillColor=#f8cecc;strokeColor=#b85450;" edge="1" parent="1" source="lYXRGoFwwgHIRX3_Q1wA-244" target="Ctn4a2YHSWsJAqv3MHbM-27">
          <mxGeometry relative="1" as="geometry" />
        </mxCell>
        <mxCell id="lYXRGoFwwgHIRX3_Q1wA-244" value="19" style="ellipse;whiteSpace=wrap;html=1;aspect=fixed;fontSize=20;" parent="1" vertex="1">
          <mxGeometry x="399.94" y="509" width="40" height="40" as="geometry" />
        </mxCell>
        <mxCell id="lYXRGoFwwgHIRX3_Q1wA-248" value="" style="curved=1;endArrow=classic;html=1;rounded=0;entryX=1;entryY=0;entryDx=0;entryDy=0;exitX=0.5;exitY=1;exitDx=0;exitDy=0;fontSize=20;" parent="1" source="lYXRGoFwwgHIRX3_Q1wA-232" target="lYXRGoFwwgHIRX3_Q1wA-244" edge="1">
          <mxGeometry width="50" height="50" relative="1" as="geometry">
            <mxPoint x="519.94" y="480" as="sourcePoint" />
            <mxPoint x="569.94" y="430" as="targetPoint" />
            <Array as="points">
              <mxPoint x="499.94" y="440" />
            </Array>
          </mxGeometry>
        </mxCell>
        <mxCell id="lYXRGoFwwgHIRX3_Q1wA-250" value="" style="curved=1;endArrow=classic;html=1;rounded=0;entryX=0;entryY=0;entryDx=0;entryDy=0;exitX=0.5;exitY=1;exitDx=0;exitDy=0;fontSize=20;" parent="1" source="lYXRGoFwwgHIRX3_Q1wA-229" target="lYXRGoFwwgHIRX3_Q1wA-244" edge="1">
          <mxGeometry width="50" height="50" relative="1" as="geometry">
            <mxPoint x="549.94" y="382" as="sourcePoint" />
            <mxPoint x="443.94" y="468" as="targetPoint" />
            <Array as="points">
              <mxPoint x="299.94" y="390" />
              <mxPoint x="329.94" y="440" />
            </Array>
          </mxGeometry>
        </mxCell>
        <mxCell id="lYXRGoFwwgHIRX3_Q1wA-267" value="&lt;span style=&quot;color: rgb(0, 0, 0); font-family: Helvetica; font-size: 20px; font-style: normal; font-variant-ligatures: normal; font-variant-caps: normal; font-weight: 400; letter-spacing: normal; orphans: 2; text-align: center; text-indent: 0px; text-transform: none; widows: 2; word-spacing: 0px; -webkit-text-stroke-width: 0px; background-color: rgb(251, 251, 251); text-decoration-thickness: initial; text-decoration-style: initial; text-decoration-color: initial; float: none; display: inline !important;&quot;&gt;&#39;a&#39;-&#39;b&#39;&lt;/span&gt;" style="text;whiteSpace=wrap;html=1;fontSize=20;" parent="1" vertex="1">
          <mxGeometry x="169.94" y="374.5" width="50" height="30" as="geometry" />
        </mxCell>
        <mxCell id="lYXRGoFwwgHIRX3_Q1wA-268" value="&lt;span style=&quot;color: rgb(0, 0, 0); font-family: Helvetica; font-size: 20px; font-style: normal; font-variant-ligatures: normal; font-variant-caps: normal; font-weight: 400; letter-spacing: normal; orphans: 2; text-align: center; text-indent: 0px; text-transform: none; widows: 2; word-spacing: 0px; -webkit-text-stroke-width: 0px; background-color: rgb(251, 251, 251); text-decoration-thickness: initial; text-decoration-style: initial; text-decoration-color: initial; float: none; display: inline !important;&quot;&gt;&#39;0&#39;-&#39;9&#39;&lt;/span&gt;" style="text;whiteSpace=wrap;html=1;fontSize=20;" parent="1" vertex="1">
          <mxGeometry x="169.94" y="416.5" width="50" height="30" as="geometry" />
        </mxCell>
        <mxCell id="lYXRGoFwwgHIRX3_Q1wA-273" style="edgeStyle=orthogonalEdgeStyle;orthogonalLoop=1;jettySize=auto;html=1;exitX=0.5;exitY=1;exitDx=0;exitDy=0;entryX=1;entryY=0.5;entryDx=0;entryDy=0;curved=1;fontSize=20;" parent="1" source="lYXRGoFwwgHIRX3_Q1wA-244" target="lYXRGoFwwgHIRX3_Q1wA-244" edge="1">
          <mxGeometry relative="1" as="geometry">
            <Array as="points">
              <mxPoint x="419.94" y="580" />
              <mxPoint x="469.94" y="580" />
              <mxPoint x="469.94" y="529" />
            </Array>
          </mxGeometry>
        </mxCell>
        <mxCell id="lYXRGoFwwgHIRX3_Q1wA-274" value="&lt;span style=&quot;color: rgb(0, 0, 0); font-family: Helvetica; font-size: 20px; font-style: normal; font-variant-ligatures: normal; font-variant-caps: normal; font-weight: 400; letter-spacing: normal; orphans: 2; text-align: center; text-indent: 0px; text-transform: none; widows: 2; word-spacing: 0px; -webkit-text-stroke-width: 0px; background-color: rgb(251, 251, 251); text-decoration-thickness: initial; text-decoration-style: initial; text-decoration-color: initial; float: none; display: inline !important;&quot;&gt;&#39;d&#39;-&#39;z&#39;&lt;/span&gt;" style="text;whiteSpace=wrap;html=1;fontSize=20;" parent="1" vertex="1">
          <mxGeometry x="169.94" y="394.5" width="50" height="30" as="geometry" />
        </mxCell>
        <mxCell id="lYXRGoFwwgHIRX3_Q1wA-291" value="&lt;span style=&quot;color: rgb(0, 0, 0); font-family: Helvetica; font-size: 20px; font-style: normal; font-variant-ligatures: normal; font-variant-caps: normal; font-weight: 400; letter-spacing: normal; orphans: 2; text-align: center; text-indent: 0px; text-transform: none; widows: 2; word-spacing: 0px; -webkit-text-stroke-width: 0px; background-color: rgb(251, 251, 251); text-decoration-thickness: initial; text-decoration-style: initial; text-decoration-color: initial; float: none; display: inline !important;&quot;&gt;&#39;a&#39;-&#39;n&#39;&lt;/span&gt;" style="text;whiteSpace=wrap;html=1;fontSize=20;" parent="1" vertex="1">
          <mxGeometry x="249.94" y="380" width="50" height="30" as="geometry" />
        </mxCell>
        <mxCell id="lYXRGoFwwgHIRX3_Q1wA-292" value="&lt;span style=&quot;color: rgb(0, 0, 0); font-family: Helvetica; font-size: 20px; font-style: normal; font-variant-ligatures: normal; font-variant-caps: normal; font-weight: 400; letter-spacing: normal; orphans: 2; text-align: center; text-indent: 0px; text-transform: none; widows: 2; word-spacing: 0px; -webkit-text-stroke-width: 0px; background-color: rgb(251, 251, 251); text-decoration-thickness: initial; text-decoration-style: initial; text-decoration-color: initial; float: none; display: inline !important;&quot;&gt;&#39;0&#39;-&#39;9&#39;&lt;/span&gt;" style="text;whiteSpace=wrap;html=1;fontSize=20;" parent="1" vertex="1">
          <mxGeometry x="249.94" y="422" width="50" height="30" as="geometry" />
        </mxCell>
        <mxCell id="lYXRGoFwwgHIRX3_Q1wA-293" value="&lt;div style=&quot;text-align: center; font-size: 20px;&quot;&gt;&lt;span style=&quot;background-color: initial; font-size: 20px;&quot;&gt;&#39;-&#39;&lt;/span&gt;&lt;/div&gt;" style="text;whiteSpace=wrap;html=1;fontSize=20;" parent="1" vertex="1">
          <mxGeometry x="264.94" y="445" width="20" height="33" as="geometry" />
        </mxCell>
        <mxCell id="lYXRGoFwwgHIRX3_Q1wA-294" value="&lt;span style=&quot;color: rgb(0, 0, 0); font-family: Helvetica; font-size: 20px; font-style: normal; font-variant-ligatures: normal; font-variant-caps: normal; font-weight: 400; letter-spacing: normal; orphans: 2; text-align: center; text-indent: 0px; text-transform: none; widows: 2; word-spacing: 0px; -webkit-text-stroke-width: 0px; background-color: rgb(251, 251, 251); text-decoration-thickness: initial; text-decoration-style: initial; text-decoration-color: initial; float: none; display: inline !important;&quot;&gt;&#39;p&#39;-&#39;z&#39;&lt;/span&gt;" style="text;whiteSpace=wrap;html=1;fontSize=20;" parent="1" vertex="1">
          <mxGeometry x="249.94" y="400" width="50" height="30" as="geometry" />
        </mxCell>
        <mxCell id="lYXRGoFwwgHIRX3_Q1wA-295" value="&lt;span style=&quot;color: rgb(0, 0, 0); font-family: Helvetica; font-size: 20px; font-style: normal; font-variant-ligatures: normal; font-variant-caps: normal; font-weight: 400; letter-spacing: normal; orphans: 2; text-align: center; text-indent: 0px; text-transform: none; widows: 2; word-spacing: 0px; -webkit-text-stroke-width: 0px; background-color: rgb(251, 251, 251); text-decoration-thickness: initial; text-decoration-style: initial; text-decoration-color: initial; float: none; display: inline !important;&quot;&gt;&#39;a&#39;-&#39;l&#39;&lt;/span&gt;" style="text;whiteSpace=wrap;html=1;fontSize=20;" parent="1" vertex="1">
          <mxGeometry x="359.94" y="372" width="50.06" height="30" as="geometry" />
        </mxCell>
        <mxCell id="lYXRGoFwwgHIRX3_Q1wA-296" value="&lt;span style=&quot;color: rgb(0, 0, 0); font-family: Helvetica; font-size: 20px; font-style: normal; font-variant-ligatures: normal; font-variant-caps: normal; font-weight: 400; letter-spacing: normal; orphans: 2; text-align: center; text-indent: 0px; text-transform: none; widows: 2; word-spacing: 0px; -webkit-text-stroke-width: 0px; background-color: rgb(251, 251, 251); text-decoration-thickness: initial; text-decoration-style: initial; text-decoration-color: initial; float: none; display: inline !important;&quot;&gt;&#39;0&#39;-&#39;9&#39;&lt;/span&gt;" style="text;whiteSpace=wrap;html=1;fontSize=20;" parent="1" vertex="1">
          <mxGeometry x="359.94" y="414" width="50" height="30" as="geometry" />
        </mxCell>
        <mxCell id="lYXRGoFwwgHIRX3_Q1wA-297" value="&lt;div style=&quot;text-align: center; font-size: 20px;&quot;&gt;&lt;span style=&quot;background-color: initial; font-size: 20px;&quot;&gt;&#39;-&#39;&lt;/span&gt;&lt;/div&gt;" style="text;whiteSpace=wrap;html=1;fontSize=20;" parent="1" vertex="1">
          <mxGeometry x="374.94" y="437" width="20" height="33" as="geometry" />
        </mxCell>
        <mxCell id="lYXRGoFwwgHIRX3_Q1wA-298" value="&lt;span style=&quot;color: rgb(0, 0, 0); font-family: Helvetica; font-size: 20px; font-style: normal; font-variant-ligatures: normal; font-variant-caps: normal; font-weight: 400; letter-spacing: normal; orphans: 2; text-align: center; text-indent: 0px; text-transform: none; widows: 2; word-spacing: 0px; -webkit-text-stroke-width: 0px; background-color: rgb(251, 251, 251); text-decoration-thickness: initial; text-decoration-style: initial; text-decoration-color: initial; float: none; display: inline !important;&quot;&gt;&#39;n&#39;-&#39;z&#39;&lt;/span&gt;" style="text;whiteSpace=wrap;html=1;fontSize=20;" parent="1" vertex="1">
          <mxGeometry x="360" y="392" width="59.94" height="30" as="geometry" />
        </mxCell>
        <mxCell id="lYXRGoFwwgHIRX3_Q1wA-300" value="&lt;span style=&quot;color: rgb(0, 0, 0); font-family: Helvetica; font-size: 20px; font-style: normal; font-variant-ligatures: normal; font-variant-caps: normal; font-weight: 400; letter-spacing: normal; orphans: 2; text-align: center; text-indent: 0px; text-transform: none; widows: 2; word-spacing: 0px; -webkit-text-stroke-width: 0px; background-color: rgb(251, 251, 251); text-decoration-thickness: initial; text-decoration-style: initial; text-decoration-color: initial; float: none; display: inline !important;&quot;&gt;&#39;0&#39;-&#39;9&#39;&lt;/span&gt;" style="text;whiteSpace=wrap;html=1;fontSize=20;" parent="1" vertex="1">
          <mxGeometry x="519.94" y="438.5" width="50" height="30" as="geometry" />
        </mxCell>
        <mxCell id="lYXRGoFwwgHIRX3_Q1wA-301" value="&lt;div style=&quot;text-align: center; font-size: 20px;&quot;&gt;&lt;span style=&quot;background-color: initial; font-size: 20px;&quot;&gt;&#39;-&#39;&lt;/span&gt;&lt;/div&gt;" style="text;whiteSpace=wrap;html=1;fontSize=20;" parent="1" vertex="1">
          <mxGeometry x="534.94" y="461.5" width="20" height="33" as="geometry" />
        </mxCell>
        <mxCell id="lYXRGoFwwgHIRX3_Q1wA-302" value="&lt;span style=&quot;color: rgb(0, 0, 0); font-family: Helvetica; font-size: 20px; font-style: normal; font-variant-ligatures: normal; font-variant-caps: normal; font-weight: 400; letter-spacing: normal; orphans: 2; text-align: center; text-indent: 0px; text-transform: none; widows: 2; word-spacing: 0px; -webkit-text-stroke-width: 0px; background-color: rgb(251, 251, 251); text-decoration-thickness: initial; text-decoration-style: initial; text-decoration-color: initial; float: none; display: inline !important;&quot;&gt;&#39;a&#39;-&#39;z&#39;&lt;/span&gt;" style="text;whiteSpace=wrap;html=1;fontSize=20;" parent="1" vertex="1">
          <mxGeometry x="519.94" y="416.5" width="50" height="30" as="geometry" />
        </mxCell>
        <mxCell id="lYXRGoFwwgHIRX3_Q1wA-303" value="&lt;span style=&quot;color: rgb(0, 0, 0); font-family: Helvetica; font-size: 20px; font-style: normal; font-variant-ligatures: normal; font-variant-caps: normal; font-weight: 400; letter-spacing: normal; orphans: 2; text-align: center; text-indent: 0px; text-transform: none; widows: 2; word-spacing: 0px; -webkit-text-stroke-width: 0px; background-color: rgb(251, 251, 251); text-decoration-thickness: initial; text-decoration-style: initial; text-decoration-color: initial; float: none; display: inline !important;&quot;&gt;&#39;a&#39;-&#39;z&#39;&lt;/span&gt;" style="text;whiteSpace=wrap;html=1;fontSize=20;" parent="1" vertex="1">
          <mxGeometry x="474.94" y="540" width="50" height="30" as="geometry" />
        </mxCell>
        <mxCell id="lYXRGoFwwgHIRX3_Q1wA-304" value="&lt;span style=&quot;color: rgb(0, 0, 0); font-family: Helvetica; font-size: 20px; font-style: normal; font-variant-ligatures: normal; font-variant-caps: normal; font-weight: 400; letter-spacing: normal; orphans: 2; text-align: center; text-indent: 0px; text-transform: none; widows: 2; word-spacing: 0px; -webkit-text-stroke-width: 0px; background-color: rgb(251, 251, 251); text-decoration-thickness: initial; text-decoration-style: initial; text-decoration-color: initial; float: none; display: inline !important;&quot;&gt;&#39;0&#39;-&#39;9&#39;&lt;/span&gt;" style="text;whiteSpace=wrap;html=1;fontSize=20;" parent="1" vertex="1">
          <mxGeometry x="474.94" y="564" width="50" height="30" as="geometry" />
        </mxCell>
        <mxCell id="lYXRGoFwwgHIRX3_Q1wA-305" value="&lt;div style=&quot;text-align: center; font-size: 20px;&quot;&gt;&lt;span style=&quot;background-color: initial; font-size: 20px;&quot;&gt;&#39;-&#39;&lt;/span&gt;&lt;/div&gt;" style="text;whiteSpace=wrap;html=1;fontSize=20;" parent="1" vertex="1">
          <mxGeometry x="489.44" y="585" width="21" height="30" as="geometry" />
        </mxCell>
        <mxCell id="lYXRGoFwwgHIRX3_Q1wA-309" value="&lt;span style=&quot;color: rgb(0, 0, 0); font-family: Helvetica; font-size: 20px; font-style: normal; font-variant-ligatures: normal; font-variant-caps: normal; font-weight: 400; letter-spacing: normal; orphans: 2; text-align: center; text-indent: 0px; text-transform: none; widows: 2; word-spacing: 0px; -webkit-text-stroke-width: 0px; background-color: rgb(251, 251, 251); text-decoration-thickness: initial; text-decoration-style: initial; text-decoration-color: initial; float: none; display: inline !important;&quot;&gt;&#39;.&#39;&lt;/span&gt;" style="text;whiteSpace=wrap;html=1;fontSize=20;" parent="1" vertex="1">
          <mxGeometry x="199.94" y="530" width="10" height="28" as="geometry" />
        </mxCell>
        <mxCell id="lYXRGoFwwgHIRX3_Q1wA-316" value="&lt;span style=&quot;color: rgb(0, 0, 0); font-family: Helvetica; font-size: 20px; font-style: normal; font-variant-ligatures: normal; font-variant-caps: normal; font-weight: 400; letter-spacing: normal; orphans: 2; text-align: center; text-indent: 0px; text-transform: none; widows: 2; word-spacing: 0px; -webkit-text-stroke-width: 0px; background-color: rgb(251, 251, 251); text-decoration-thickness: initial; text-decoration-style: initial; text-decoration-color: initial; float: none; display: inline !important;&quot;&gt;&#39;.&#39;&lt;/span&gt;" style="text;whiteSpace=wrap;html=1;fontSize=20;" parent="1" vertex="1">
          <mxGeometry x="419.94" y="298" width="10" height="28" as="geometry" />
        </mxCell>
        <mxCell id="lYXRGoFwwgHIRX3_Q1wA-317" value="&lt;span style=&quot;color: rgb(0, 0, 0); font-family: Helvetica; font-size: 20px; font-style: normal; font-variant-ligatures: normal; font-variant-caps: normal; font-weight: 400; letter-spacing: normal; orphans: 2; text-align: center; text-indent: 0px; text-transform: none; widows: 2; word-spacing: 0px; -webkit-text-stroke-width: 0px; background-color: rgb(251, 251, 251); text-decoration-thickness: initial; text-decoration-style: initial; text-decoration-color: initial; float: none; display: inline !important;&quot;&gt;&#39;.&#39;&lt;/span&gt;" style="text;whiteSpace=wrap;html=1;fontSize=20;" parent="1" vertex="1">
          <mxGeometry x="299.94" y="298" width="10" height="28" as="geometry" />
        </mxCell>
        <mxCell id="lYXRGoFwwgHIRX3_Q1wA-319" value="&lt;span style=&quot;color: rgb(0, 0, 0); font-family: Helvetica; font-size: 20px; font-style: normal; font-variant-ligatures: normal; font-variant-caps: normal; font-weight: 400; letter-spacing: normal; orphans: 2; text-align: center; text-indent: 0px; text-transform: none; widows: 2; word-spacing: 0px; -webkit-text-stroke-width: 0px; background-color: rgb(251, 251, 251); text-decoration-thickness: initial; text-decoration-style: initial; text-decoration-color: initial; float: none; display: inline !important;&quot;&gt;&#39;/&#39;&lt;/span&gt;" style="text;whiteSpace=wrap;html=1;fontSize=20;" parent="1" vertex="1">
          <mxGeometry x="614.94" y="348" width="10" height="30" as="geometry" />
        </mxCell>
        <mxCell id="lYXRGoFwwgHIRX3_Q1wA-331" style="edgeStyle=orthogonalEdgeStyle;orthogonalLoop=1;jettySize=auto;html=1;entryX=0;entryY=0.5;entryDx=0;entryDy=0;fontSize=20;exitX=0.5;exitY=0;exitDx=0;exitDy=0;curved=1;" parent="1" source="lYXRGoFwwgHIRX3_Q1wA-381" target="lYXRGoFwwgHIRX3_Q1wA-333" edge="1">
          <mxGeometry relative="1" as="geometry">
            <mxPoint x="725" y="583" as="sourcePoint" />
          </mxGeometry>
        </mxCell>
        <mxCell id="lYXRGoFwwgHIRX3_Q1wA-332" style="edgeStyle=orthogonalEdgeStyle;rounded=0;orthogonalLoop=1;jettySize=auto;html=1;exitX=1;exitY=0.5;exitDx=0;exitDy=0;entryX=0;entryY=0.5;entryDx=0;entryDy=0;fontSize=20;" parent="1" source="lYXRGoFwwgHIRX3_Q1wA-333" target="lYXRGoFwwgHIRX3_Q1wA-336" edge="1">
          <mxGeometry relative="1" as="geometry" />
        </mxCell>
        <mxCell id="lYXRGoFwwgHIRX3_Q1wA-333" value="24" style="ellipse;whiteSpace=wrap;html=1;aspect=fixed;fontSize=20;" parent="1" vertex="1">
          <mxGeometry x="769.94" y="518" width="40" height="40" as="geometry" />
        </mxCell>
        <mxCell id="lYXRGoFwwgHIRX3_Q1wA-334" style="edgeStyle=orthogonalEdgeStyle;rounded=0;orthogonalLoop=1;jettySize=auto;html=1;exitX=1;exitY=0.5;exitDx=0;exitDy=0;entryX=0;entryY=0.5;entryDx=0;entryDy=0;fontSize=20;" parent="1" source="lYXRGoFwwgHIRX3_Q1wA-336" target="lYXRGoFwwgHIRX3_Q1wA-338" edge="1">
          <mxGeometry relative="1" as="geometry" />
        </mxCell>
        <mxCell id="lYXRGoFwwgHIRX3_Q1wA-335" style="edgeStyle=orthogonalEdgeStyle;orthogonalLoop=1;jettySize=auto;html=1;exitX=0.5;exitY=0;exitDx=0;exitDy=0;entryX=0;entryY=0.5;entryDx=0;entryDy=0;curved=1;fontSize=20;" parent="1" source="lYXRGoFwwgHIRX3_Q1wA-336" target="lYXRGoFwwgHIRX3_Q1wA-344" edge="1">
          <mxGeometry relative="1" as="geometry" />
        </mxCell>
        <mxCell id="lYXRGoFwwgHIRX3_Q1wA-336" value="25" style="ellipse;whiteSpace=wrap;html=1;aspect=fixed;fontSize=20;" parent="1" vertex="1">
          <mxGeometry x="849.94" y="518" width="40" height="40" as="geometry" />
        </mxCell>
        <mxCell id="lYXRGoFwwgHIRX3_Q1wA-337" style="edgeStyle=orthogonalEdgeStyle;orthogonalLoop=1;jettySize=auto;html=1;exitX=1;exitY=0.5;exitDx=0;exitDy=0;entryX=0.5;entryY=0;entryDx=0;entryDy=0;fontSize=20;curved=1;" parent="1" source="lYXRGoFwwgHIRX3_Q1wA-338" target="lYXRGoFwwgHIRX3_Q1wA-370" edge="1">
          <mxGeometry relative="1" as="geometry">
            <mxPoint x="1014.9400000000069" y="538" as="targetPoint" />
          </mxGeometry>
        </mxCell>
        <mxCell id="Ctn4a2YHSWsJAqv3MHbM-39" style="edgeStyle=orthogonalEdgeStyle;orthogonalLoop=1;jettySize=auto;html=1;exitX=1;exitY=0;exitDx=0;exitDy=0;entryX=0.5;entryY=0;entryDx=0;entryDy=0;curved=1;fillColor=#f8cecc;strokeColor=#b85450;" edge="1" parent="1" source="lYXRGoFwwgHIRX3_Q1wA-338" target="Ctn4a2YHSWsJAqv3MHbM-33">
          <mxGeometry relative="1" as="geometry">
            <Array as="points">
              <mxPoint x="964" y="500" />
              <mxPoint x="1017" y="500" />
              <mxPoint x="1017" y="338" />
            </Array>
          </mxGeometry>
        </mxCell>
        <mxCell id="lYXRGoFwwgHIRX3_Q1wA-338" value="27" style="ellipse;whiteSpace=wrap;html=1;aspect=fixed;fontSize=20;" parent="1" vertex="1">
          <mxGeometry x="929.94" y="518" width="40" height="40" as="geometry" />
        </mxCell>
        <mxCell id="lYXRGoFwwgHIRX3_Q1wA-341" value="&lt;span style=&quot;color: rgb(0, 0, 0); font-family: Helvetica; font-size: 20px; font-style: normal; font-variant-ligatures: normal; font-variant-caps: normal; font-weight: 400; letter-spacing: normal; orphans: 2; text-align: center; text-indent: 0px; text-transform: none; widows: 2; word-spacing: 0px; -webkit-text-stroke-width: 0px; background-color: rgb(251, 251, 251); text-decoration-thickness: initial; text-decoration-style: initial; text-decoration-color: initial; float: none; display: inline !important;&quot;&gt;&#39;p&#39;&lt;/span&gt;" style="text;whiteSpace=wrap;html=1;fontSize=20;" parent="1" vertex="1">
          <mxGeometry x="819.94" y="506" width="20" height="30" as="geometry" />
        </mxCell>
        <mxCell id="lYXRGoFwwgHIRX3_Q1wA-342" value="&lt;span style=&quot;color: rgb(0, 0, 0); font-family: Helvetica; font-size: 20px; font-style: normal; font-variant-ligatures: normal; font-variant-caps: normal; font-weight: 400; letter-spacing: normal; orphans: 2; text-align: center; text-indent: 0px; text-transform: none; widows: 2; word-spacing: 0px; -webkit-text-stroke-width: 0px; background-color: rgb(251, 251, 251); text-decoration-thickness: initial; text-decoration-style: initial; text-decoration-color: initial; float: none; display: inline !important;&quot;&gt;&#39;g&#39;&lt;/span&gt;" style="text;whiteSpace=wrap;html=1;fontSize=20;" parent="1" vertex="1">
          <mxGeometry x="899.94" y="506" width="20" height="30" as="geometry" />
        </mxCell>
        <mxCell id="lYXRGoFwwgHIRX3_Q1wA-343" style="edgeStyle=orthogonalEdgeStyle;orthogonalLoop=1;jettySize=auto;html=1;exitX=1;exitY=0.5;exitDx=0;exitDy=0;entryX=0.5;entryY=0;entryDx=0;entryDy=0;curved=1;fontSize=20;" parent="1" source="lYXRGoFwwgHIRX3_Q1wA-344" target="lYXRGoFwwgHIRX3_Q1wA-338" edge="1">
          <mxGeometry relative="1" as="geometry" />
        </mxCell>
        <mxCell id="Ctn4a2YHSWsJAqv3MHbM-38" style="edgeStyle=orthogonalEdgeStyle;orthogonalLoop=1;jettySize=auto;html=1;exitX=0.5;exitY=0;exitDx=0;exitDy=0;entryX=1;entryY=0.5;entryDx=0;entryDy=0;curved=1;fillColor=#f8cecc;strokeColor=#b85450;" edge="1" parent="1" source="lYXRGoFwwgHIRX3_Q1wA-344" target="Ctn4a2YHSWsJAqv3MHbM-33">
          <mxGeometry relative="1" as="geometry" />
        </mxCell>
        <mxCell id="lYXRGoFwwgHIRX3_Q1wA-344" value="26" style="ellipse;whiteSpace=wrap;html=1;aspect=fixed;fontSize=20;" parent="1" vertex="1">
          <mxGeometry x="889.94" y="458" width="40" height="40" as="geometry" />
        </mxCell>
        <mxCell id="lYXRGoFwwgHIRX3_Q1wA-345" value="&lt;span style=&quot;color: rgb(0, 0, 0); font-family: Helvetica; font-size: 20px; font-style: normal; font-variant-ligatures: normal; font-variant-caps: normal; font-weight: 400; letter-spacing: normal; orphans: 2; text-align: center; text-indent: 0px; text-transform: none; widows: 2; word-spacing: 0px; -webkit-text-stroke-width: 0px; background-color: rgb(251, 251, 251); text-decoration-thickness: initial; text-decoration-style: initial; text-decoration-color: initial; float: none; display: inline !important;&quot;&gt;&#39;g&#39;&lt;/span&gt;" style="text;whiteSpace=wrap;html=1;fontSize=20;" parent="1" vertex="1">
          <mxGeometry x="954.94" y="468" width="20" height="30" as="geometry" />
        </mxCell>
        <mxCell id="lYXRGoFwwgHIRX3_Q1wA-346" value="&lt;span style=&quot;color: rgb(0, 0, 0); font-family: Helvetica; font-size: 20px; font-style: normal; font-variant-ligatures: normal; font-variant-caps: normal; font-weight: 400; letter-spacing: normal; orphans: 2; text-align: center; text-indent: 0px; text-transform: none; widows: 2; word-spacing: 0px; -webkit-text-stroke-width: 0px; background-color: rgb(251, 251, 251); text-decoration-thickness: initial; text-decoration-style: initial; text-decoration-color: initial; float: none; display: inline !important;&quot;&gt;&#39;e&#39;&lt;/span&gt;" style="text;whiteSpace=wrap;html=1;fontSize=20;" parent="1" vertex="1">
          <mxGeometry x="849.94" y="468" width="20" height="30" as="geometry" />
        </mxCell>
        <mxCell id="lYXRGoFwwgHIRX3_Q1wA-347" value="&lt;span style=&quot;color: rgb(0, 0, 0); font-family: Helvetica; font-size: 20px; font-style: normal; font-variant-ligatures: normal; font-variant-caps: normal; font-weight: 400; letter-spacing: normal; orphans: 2; text-align: center; text-indent: 0px; text-transform: none; widows: 2; word-spacing: 0px; -webkit-text-stroke-width: 0px; background-color: rgb(251, 251, 251); text-decoration-thickness: initial; text-decoration-style: initial; text-decoration-color: initial; float: none; display: inline !important;&quot;&gt;&#39;&quot;&#39;&lt;/span&gt;" style="text;whiteSpace=wrap;html=1;fontSize=20;" parent="1" vertex="1">
          <mxGeometry x="1011.8800000000001" y="506" width="10" height="30" as="geometry" />
        </mxCell>
        <mxCell id="lYXRGoFwwgHIRX3_Q1wA-348" style="edgeStyle=orthogonalEdgeStyle;rounded=0;orthogonalLoop=1;jettySize=auto;html=1;exitX=1;exitY=0.5;exitDx=0;exitDy=0;entryX=0;entryY=0.5;entryDx=0;entryDy=0;fontSize=20;" parent="1" source="lYXRGoFwwgHIRX3_Q1wA-381" target="lYXRGoFwwgHIRX3_Q1wA-350" edge="1">
          <mxGeometry relative="1" as="geometry">
            <mxPoint x="730" y="610" as="sourcePoint" />
          </mxGeometry>
        </mxCell>
        <mxCell id="lYXRGoFwwgHIRX3_Q1wA-349" style="edgeStyle=orthogonalEdgeStyle;rounded=0;orthogonalLoop=1;jettySize=auto;html=1;exitX=1;exitY=0.5;exitDx=0;exitDy=0;entryX=0;entryY=0.5;entryDx=0;entryDy=0;fontSize=20;" parent="1" source="lYXRGoFwwgHIRX3_Q1wA-350" target="lYXRGoFwwgHIRX3_Q1wA-352" edge="1">
          <mxGeometry relative="1" as="geometry" />
        </mxCell>
        <mxCell id="Ctn4a2YHSWsJAqv3MHbM-43" style="edgeStyle=orthogonalEdgeStyle;orthogonalLoop=1;jettySize=auto;html=1;exitX=0;exitY=1;exitDx=0;exitDy=0;entryX=0;entryY=0;entryDx=0;entryDy=0;curved=1;fillColor=#f8cecc;strokeColor=#b85450;" edge="1" parent="1" source="lYXRGoFwwgHIRX3_Q1wA-350" target="Ctn4a2YHSWsJAqv3MHbM-41">
          <mxGeometry relative="1" as="geometry">
            <Array as="points">
              <mxPoint x="776" y="660" />
              <mxPoint x="594" y="660" />
            </Array>
          </mxGeometry>
        </mxCell>
        <mxCell id="lYXRGoFwwgHIRX3_Q1wA-350" value="28" style="ellipse;whiteSpace=wrap;html=1;aspect=fixed;fontSize=20;" parent="1" vertex="1">
          <mxGeometry x="769.94" y="590" width="40" height="40" as="geometry" />
        </mxCell>
        <mxCell id="lYXRGoFwwgHIRX3_Q1wA-351" style="edgeStyle=orthogonalEdgeStyle;rounded=0;orthogonalLoop=1;jettySize=auto;html=1;exitX=1;exitY=0.5;exitDx=0;exitDy=0;entryX=0;entryY=0.5;entryDx=0;entryDy=0;fontSize=20;" parent="1" source="lYXRGoFwwgHIRX3_Q1wA-352" target="lYXRGoFwwgHIRX3_Q1wA-354" edge="1">
          <mxGeometry relative="1" as="geometry" />
        </mxCell>
        <mxCell id="Ctn4a2YHSWsJAqv3MHbM-46" style="edgeStyle=orthogonalEdgeStyle;orthogonalLoop=1;jettySize=auto;html=1;exitX=1;exitY=1;exitDx=0;exitDy=0;entryX=0.5;entryY=1;entryDx=0;entryDy=0;fillColor=#f8cecc;strokeColor=#b85450;curved=1;" edge="1" parent="1" source="lYXRGoFwwgHIRX3_Q1wA-352" target="Ctn4a2YHSWsJAqv3MHbM-45">
          <mxGeometry relative="1" as="geometry">
            <Array as="points">
              <mxPoint x="900" y="624" />
              <mxPoint x="900" y="770" />
            </Array>
          </mxGeometry>
        </mxCell>
        <mxCell id="lYXRGoFwwgHIRX3_Q1wA-352" value="29" style="ellipse;whiteSpace=wrap;html=1;aspect=fixed;fontSize=20;" parent="1" vertex="1">
          <mxGeometry x="849.94" y="590" width="40" height="40" as="geometry" />
        </mxCell>
        <mxCell id="lYXRGoFwwgHIRX3_Q1wA-353" style="edgeStyle=orthogonalEdgeStyle;rounded=0;orthogonalLoop=1;jettySize=auto;html=1;exitX=1;exitY=0.5;exitDx=0;exitDy=0;entryX=0;entryY=0.5;entryDx=0;entryDy=0;fontSize=20;" parent="1" source="lYXRGoFwwgHIRX3_Q1wA-354" target="lYXRGoFwwgHIRX3_Q1wA-370" edge="1">
          <mxGeometry relative="1" as="geometry">
            <mxPoint x="1019.9400000000069" y="610" as="targetPoint" />
          </mxGeometry>
        </mxCell>
        <mxCell id="Ctn4a2YHSWsJAqv3MHbM-49" style="edgeStyle=orthogonalEdgeStyle;orthogonalLoop=1;jettySize=auto;html=1;exitX=1;exitY=1;exitDx=0;exitDy=0;entryX=0;entryY=0.5;entryDx=0;entryDy=0;fillColor=#f8cecc;strokeColor=#b85450;curved=1;" edge="1" parent="1" source="lYXRGoFwwgHIRX3_Q1wA-354" target="Ctn4a2YHSWsJAqv3MHbM-45">
          <mxGeometry relative="1" as="geometry" />
        </mxCell>
        <mxCell id="lYXRGoFwwgHIRX3_Q1wA-354" value="30" style="ellipse;whiteSpace=wrap;html=1;aspect=fixed;fontSize=20;" parent="1" vertex="1">
          <mxGeometry x="929.94" y="590" width="40" height="40" as="geometry" />
        </mxCell>
        <mxCell id="lYXRGoFwwgHIRX3_Q1wA-355" value="&lt;span style=&quot;color: rgb(0, 0, 0); font-family: Helvetica; font-size: 20px; font-style: normal; font-variant-ligatures: normal; font-variant-caps: normal; font-weight: 400; letter-spacing: normal; orphans: 2; text-align: center; text-indent: 0px; text-transform: none; widows: 2; word-spacing: 0px; -webkit-text-stroke-width: 0px; background-color: rgb(251, 251, 251); text-decoration-thickness: initial; text-decoration-style: initial; text-decoration-color: initial; float: none; display: inline !important;&quot;&gt;&#39;b&#39;&lt;/span&gt;" style="text;whiteSpace=wrap;html=1;fontSize=20;" parent="1" vertex="1">
          <mxGeometry x="739.94" y="578" width="20" height="30" as="geometry" />
        </mxCell>
        <mxCell id="lYXRGoFwwgHIRX3_Q1wA-356" value="&lt;span style=&quot;color: rgb(0, 0, 0); font-family: Helvetica; font-size: 20px; font-style: normal; font-variant-ligatures: normal; font-variant-caps: normal; font-weight: 400; letter-spacing: normal; orphans: 2; text-align: center; text-indent: 0px; text-transform: none; widows: 2; word-spacing: 0px; -webkit-text-stroke-width: 0px; background-color: rgb(251, 251, 251); text-decoration-thickness: initial; text-decoration-style: initial; text-decoration-color: initial; float: none; display: inline !important;&quot;&gt;&#39;m&#39;&lt;/span&gt;" style="text;whiteSpace=wrap;html=1;fontSize=20;" parent="1" vertex="1">
          <mxGeometry x="819.94" y="578" width="20" height="30" as="geometry" />
        </mxCell>
        <mxCell id="lYXRGoFwwgHIRX3_Q1wA-357" value="&lt;span style=&quot;color: rgb(0, 0, 0); font-family: Helvetica; font-size: 20px; font-style: normal; font-variant-ligatures: normal; font-variant-caps: normal; font-weight: 400; letter-spacing: normal; orphans: 2; text-align: center; text-indent: 0px; text-transform: none; widows: 2; word-spacing: 0px; -webkit-text-stroke-width: 0px; background-color: rgb(251, 251, 251); text-decoration-thickness: initial; text-decoration-style: initial; text-decoration-color: initial; float: none; display: inline !important;&quot;&gt;&#39;p&#39;&lt;/span&gt;" style="text;whiteSpace=wrap;html=1;fontSize=20;" parent="1" vertex="1">
          <mxGeometry x="899.94" y="578" width="20" height="30" as="geometry" />
        </mxCell>
        <mxCell id="lYXRGoFwwgHIRX3_Q1wA-358" value="&lt;span style=&quot;color: rgb(0, 0, 0); font-family: Helvetica; font-size: 20px; font-style: normal; font-variant-ligatures: normal; font-variant-caps: normal; font-weight: 400; letter-spacing: normal; orphans: 2; text-align: center; text-indent: 0px; text-transform: none; widows: 2; word-spacing: 0px; -webkit-text-stroke-width: 0px; background-color: rgb(251, 251, 251); text-decoration-thickness: initial; text-decoration-style: initial; text-decoration-color: initial; float: none; display: inline !important;&quot;&gt;&#39;&quot;&#39;&lt;/span&gt;" style="text;whiteSpace=wrap;html=1;fontSize=20;" parent="1" vertex="1">
          <mxGeometry x="1011.8800000000001" y="568" width="10" height="30" as="geometry" />
        </mxCell>
        <mxCell id="lYXRGoFwwgHIRX3_Q1wA-360" style="edgeStyle=orthogonalEdgeStyle;rounded=0;orthogonalLoop=1;jettySize=auto;html=1;exitX=1;exitY=0.5;exitDx=0;exitDy=0;entryX=0;entryY=0.5;entryDx=0;entryDy=0;fontSize=20;" parent="1" source="lYXRGoFwwgHIRX3_Q1wA-361" target="lYXRGoFwwgHIRX3_Q1wA-363" edge="1">
          <mxGeometry relative="1" as="geometry" />
        </mxCell>
        <mxCell id="Ctn4a2YHSWsJAqv3MHbM-44" style="edgeStyle=orthogonalEdgeStyle;orthogonalLoop=1;jettySize=auto;html=1;exitX=0.5;exitY=1;exitDx=0;exitDy=0;entryX=0.5;entryY=0;entryDx=0;entryDy=0;curved=1;fillColor=#f8cecc;strokeColor=#b85450;" edge="1" parent="1" source="lYXRGoFwwgHIRX3_Q1wA-361" target="Ctn4a2YHSWsJAqv3MHbM-41">
          <mxGeometry relative="1" as="geometry" />
        </mxCell>
        <mxCell id="lYXRGoFwwgHIRX3_Q1wA-361" value="31" style="ellipse;whiteSpace=wrap;html=1;aspect=fixed;fontSize=20;" parent="1" vertex="1">
          <mxGeometry x="769.8800000000001" y="660" width="40" height="40" as="geometry" />
        </mxCell>
        <mxCell id="lYXRGoFwwgHIRX3_Q1wA-362" style="edgeStyle=orthogonalEdgeStyle;rounded=0;orthogonalLoop=1;jettySize=auto;html=1;exitX=1;exitY=0.5;exitDx=0;exitDy=0;entryX=0;entryY=0.5;entryDx=0;entryDy=0;fontSize=20;" parent="1" source="lYXRGoFwwgHIRX3_Q1wA-363" target="lYXRGoFwwgHIRX3_Q1wA-365" edge="1">
          <mxGeometry relative="1" as="geometry" />
        </mxCell>
        <mxCell id="Ctn4a2YHSWsJAqv3MHbM-47" style="edgeStyle=orthogonalEdgeStyle;orthogonalLoop=1;jettySize=auto;html=1;exitX=0.5;exitY=1;exitDx=0;exitDy=0;entryX=1;entryY=1;entryDx=0;entryDy=0;fillColor=#f8cecc;strokeColor=#b85450;curved=1;" edge="1" parent="1" source="lYXRGoFwwgHIRX3_Q1wA-363" target="Ctn4a2YHSWsJAqv3MHbM-45">
          <mxGeometry relative="1" as="geometry">
            <Array as="points">
              <mxPoint x="870" y="820" />
              <mxPoint x="993" y="820" />
            </Array>
          </mxGeometry>
        </mxCell>
        <mxCell id="lYXRGoFwwgHIRX3_Q1wA-363" value="32" style="ellipse;whiteSpace=wrap;html=1;aspect=fixed;fontSize=20;" parent="1" vertex="1">
          <mxGeometry x="849.8800000000001" y="660" width="40" height="40" as="geometry" />
        </mxCell>
        <mxCell id="lYXRGoFwwgHIRX3_Q1wA-364" style="edgeStyle=orthogonalEdgeStyle;orthogonalLoop=1;jettySize=auto;html=1;exitX=1;exitY=0.5;exitDx=0;exitDy=0;entryX=0.5;entryY=1;entryDx=0;entryDy=0;fontSize=20;curved=1;" parent="1" source="lYXRGoFwwgHIRX3_Q1wA-365" target="lYXRGoFwwgHIRX3_Q1wA-370" edge="1">
          <mxGeometry relative="1" as="geometry">
            <mxPoint x="1024.880000000007" y="680" as="targetPoint" />
          </mxGeometry>
        </mxCell>
        <mxCell id="Ctn4a2YHSWsJAqv3MHbM-48" style="edgeStyle=orthogonalEdgeStyle;orthogonalLoop=1;jettySize=auto;html=1;exitX=1;exitY=0.5;exitDx=0;exitDy=0;entryX=0;entryY=1;entryDx=0;entryDy=0;fillColor=#f8cecc;strokeColor=#b85450;curved=1;" edge="1" parent="1" source="lYXRGoFwwgHIRX3_Q1wA-365" target="Ctn4a2YHSWsJAqv3MHbM-45">
          <mxGeometry relative="1" as="geometry">
            <Array as="points">
              <mxPoint x="970" y="730" />
              <mxPoint x="993" y="730" />
            </Array>
          </mxGeometry>
        </mxCell>
        <mxCell id="lYXRGoFwwgHIRX3_Q1wA-365" value="33" style="ellipse;whiteSpace=wrap;html=1;aspect=fixed;fontSize=20;" parent="1" vertex="1">
          <mxGeometry x="929.8800000000001" y="660" width="40" height="40" as="geometry" />
        </mxCell>
        <mxCell id="lYXRGoFwwgHIRX3_Q1wA-366" value="&lt;span style=&quot;color: rgb(0, 0, 0); font-family: Helvetica; font-size: 20px; font-style: normal; font-variant-ligatures: normal; font-variant-caps: normal; font-weight: 400; letter-spacing: normal; orphans: 2; text-align: center; text-indent: 0px; text-transform: none; widows: 2; word-spacing: 0px; -webkit-text-stroke-width: 0px; background-color: rgb(251, 251, 251); text-decoration-thickness: initial; text-decoration-style: initial; text-decoration-color: initial; float: none; display: inline !important;&quot;&gt;&#39;p&#39;&lt;/span&gt;" style="text;whiteSpace=wrap;html=1;fontSize=20;" parent="1" vertex="1">
          <mxGeometry x="709.94" y="670" width="20" height="30" as="geometry" />
        </mxCell>
        <mxCell id="lYXRGoFwwgHIRX3_Q1wA-367" value="&lt;span style=&quot;color: rgb(0, 0, 0); font-family: Helvetica; font-size: 20px; font-style: normal; font-variant-ligatures: normal; font-variant-caps: normal; font-weight: 400; letter-spacing: normal; orphans: 2; text-align: center; text-indent: 0px; text-transform: none; widows: 2; word-spacing: 0px; -webkit-text-stroke-width: 0px; background-color: rgb(251, 251, 251); text-decoration-thickness: initial; text-decoration-style: initial; text-decoration-color: initial; float: none; display: inline !important;&quot;&gt;&#39;n&#39;&lt;/span&gt;" style="text;whiteSpace=wrap;html=1;fontSize=20;" parent="1" vertex="1">
          <mxGeometry x="819.8800000000001" y="648" width="20" height="30" as="geometry" />
        </mxCell>
        <mxCell id="lYXRGoFwwgHIRX3_Q1wA-368" value="&lt;span style=&quot;color: rgb(0, 0, 0); font-family: Helvetica; font-size: 20px; font-style: normal; font-variant-ligatures: normal; font-variant-caps: normal; font-weight: 400; letter-spacing: normal; orphans: 2; text-align: center; text-indent: 0px; text-transform: none; widows: 2; word-spacing: 0px; -webkit-text-stroke-width: 0px; background-color: rgb(251, 251, 251); text-decoration-thickness: initial; text-decoration-style: initial; text-decoration-color: initial; float: none; display: inline !important;&quot;&gt;&#39;g&#39;&lt;/span&gt;" style="text;whiteSpace=wrap;html=1;fontSize=20;" parent="1" vertex="1">
          <mxGeometry x="899.8800000000001" y="648" width="20" height="30" as="geometry" />
        </mxCell>
        <mxCell id="lYXRGoFwwgHIRX3_Q1wA-369" value="&lt;span style=&quot;color: rgb(0, 0, 0); font-family: Helvetica; font-size: 20px; font-style: normal; font-variant-ligatures: normal; font-variant-caps: normal; font-weight: 400; letter-spacing: normal; orphans: 2; text-align: center; text-indent: 0px; text-transform: none; widows: 2; word-spacing: 0px; -webkit-text-stroke-width: 0px; background-color: rgb(251, 251, 251); text-decoration-thickness: initial; text-decoration-style: initial; text-decoration-color: initial; float: none; display: inline !important;&quot;&gt;&#39;&quot;&#39;&lt;/span&gt;" style="text;whiteSpace=wrap;html=1;fontSize=20;" parent="1" vertex="1">
          <mxGeometry x="1011.8800000000001" y="646" width="10" height="30" as="geometry" />
        </mxCell>
        <mxCell id="Ctn4a2YHSWsJAqv3MHbM-51" style="edgeStyle=orthogonalEdgeStyle;orthogonalLoop=1;jettySize=auto;html=1;exitX=1;exitY=0.5;exitDx=0;exitDy=0;entryX=0;entryY=0.5;entryDx=0;entryDy=0;curved=1;fillColor=#f8cecc;strokeColor=#b85450;" edge="1" parent="1" source="lYXRGoFwwgHIRX3_Q1wA-370" target="Ctn4a2YHSWsJAqv3MHbM-50">
          <mxGeometry relative="1" as="geometry" />
        </mxCell>
        <mxCell id="lYXRGoFwwgHIRX3_Q1wA-370" value="" style="ellipse;whiteSpace=wrap;html=1;aspect=fixed;fontSize=20;" parent="1" vertex="1">
          <mxGeometry x="1055" y="581" width="58" height="58" as="geometry" />
        </mxCell>
        <mxCell id="lYXRGoFwwgHIRX3_Q1wA-375" value="34" style="ellipse;whiteSpace=wrap;html=1;aspect=fixed;fontSize=20;" parent="1" vertex="1">
          <mxGeometry x="1064.0000000000002" y="590" width="40" height="40" as="geometry" />
        </mxCell>
        <mxCell id="lYXRGoFwwgHIRX3_Q1wA-387" style="edgeStyle=orthogonalEdgeStyle;orthogonalLoop=1;jettySize=auto;html=1;exitX=0.5;exitY=1;exitDx=0;exitDy=0;entryX=0;entryY=0.5;entryDx=0;entryDy=0;curved=1;" parent="1" source="lYXRGoFwwgHIRX3_Q1wA-381" target="lYXRGoFwwgHIRX3_Q1wA-361" edge="1">
          <mxGeometry relative="1" as="geometry" />
        </mxCell>
        <mxCell id="Ctn4a2YHSWsJAqv3MHbM-42" style="edgeStyle=orthogonalEdgeStyle;orthogonalLoop=1;jettySize=auto;html=1;exitX=0;exitY=1;exitDx=0;exitDy=0;entryX=0;entryY=0.5;entryDx=0;entryDy=0;curved=1;fillColor=#f8cecc;strokeColor=#b85450;" edge="1" parent="1" source="lYXRGoFwwgHIRX3_Q1wA-381" target="Ctn4a2YHSWsJAqv3MHbM-41">
          <mxGeometry relative="1" as="geometry" />
        </mxCell>
        <mxCell id="lYXRGoFwwgHIRX3_Q1wA-381" value="23" style="ellipse;whiteSpace=wrap;html=1;aspect=fixed;fontSize=20;" parent="1" vertex="1">
          <mxGeometry x="689.94" y="590" width="40" height="40" as="geometry" />
        </mxCell>
        <mxCell id="lYXRGoFwwgHIRX3_Q1wA-399" value="&lt;span style=&quot;color: rgb(0, 0, 0); font-family: Helvetica; font-size: 20px; font-style: normal; font-variant-ligatures: normal; font-variant-caps: normal; font-weight: 400; letter-spacing: normal; orphans: 2; text-align: center; text-indent: 0px; text-transform: none; widows: 2; word-spacing: 0px; -webkit-text-stroke-width: 0px; background-color: rgb(251, 251, 251); text-decoration-thickness: initial; text-decoration-style: initial; text-decoration-color: initial; float: none; display: inline !important;&quot;&gt;&#39;a&#39;-&#39;z&#39;&lt;/span&gt;" style="text;whiteSpace=wrap;html=1;fontSize=20;" parent="1" vertex="1">
          <mxGeometry x="819.8800000000001" y="279.5" width="50" height="30" as="geometry" />
        </mxCell>
        <mxCell id="lYXRGoFwwgHIRX3_Q1wA-400" value="&lt;span style=&quot;color: rgb(0, 0, 0); font-family: Helvetica; font-size: 20px; font-style: normal; font-variant-ligatures: normal; font-variant-caps: normal; font-weight: 400; letter-spacing: normal; orphans: 2; text-align: center; text-indent: 0px; text-transform: none; widows: 2; word-spacing: 0px; -webkit-text-stroke-width: 0px; background-color: rgb(251, 251, 251); text-decoration-thickness: initial; text-decoration-style: initial; text-decoration-color: initial; float: none; display: inline !important;&quot;&gt;&#39;0&#39;-&#39;9&#39;&lt;/span&gt;" style="text;whiteSpace=wrap;html=1;fontSize=20;" parent="1" vertex="1">
          <mxGeometry x="819.8800000000001" y="303.5" width="50" height="30" as="geometry" />
        </mxCell>
        <mxCell id="lYXRGoFwwgHIRX3_Q1wA-401" value="&lt;div style=&quot;text-align: center; font-size: 20px;&quot;&gt;&lt;span style=&quot;background-color: initial; font-size: 20px;&quot;&gt;&#39;-&#39;&lt;/span&gt;&lt;/div&gt;" style="text;whiteSpace=wrap;html=1;fontSize=20;" parent="1" vertex="1">
          <mxGeometry x="834.3800000000001" y="324.5" width="21" height="30" as="geometry" />
        </mxCell>
        <mxCell id="lYXRGoFwwgHIRX3_Q1wA-402" style="edgeStyle=orthogonalEdgeStyle;orthogonalLoop=1;jettySize=auto;html=1;exitX=1;exitY=0.5;exitDx=0;exitDy=0;entryX=0;entryY=0.5;entryDx=0;entryDy=0;curved=1;" parent="1" source="lYXRGoFwwgHIRX3_Q1wA-403" target="lYXRGoFwwgHIRX3_Q1wA-381" edge="1">
          <mxGeometry relative="1" as="geometry">
            <mxPoint x="861.53" y="352" as="targetPoint" />
            <Array as="points">
              <mxPoint x="810" y="352" />
              <mxPoint x="810" y="480" />
              <mxPoint x="650" y="480" />
              <mxPoint x="650" y="610" />
            </Array>
          </mxGeometry>
        </mxCell>
        <mxCell id="lYXRGoFwwgHIRX3_Q1wA-411" style="edgeStyle=orthogonalEdgeStyle;orthogonalLoop=1;jettySize=auto;html=1;exitX=0.5;exitY=1;exitDx=0;exitDy=0;entryX=0.5;entryY=1;entryDx=0;entryDy=0;endArrow=classic;endFill=1;curved=1;" parent="1" source="lYXRGoFwwgHIRX3_Q1wA-403" target="lYXRGoFwwgHIRX3_Q1wA-407" edge="1">
          <mxGeometry relative="1" as="geometry">
            <Array as="points">
              <mxPoint x="787" y="410" />
              <mxPoint x="700" y="410" />
            </Array>
          </mxGeometry>
        </mxCell>
        <mxCell id="lYXRGoFwwgHIRX3_Q1wA-403" value="22" style="ellipse;whiteSpace=wrap;html=1;aspect=fixed;fontSize=20;" parent="1" vertex="1">
          <mxGeometry x="766.94" y="332" width="40" height="40" as="geometry" />
        </mxCell>
        <mxCell id="lYXRGoFwwgHIRX3_Q1wA-405" style="edgeStyle=orthogonalEdgeStyle;orthogonalLoop=1;jettySize=auto;html=1;exitX=1;exitY=0;exitDx=0;exitDy=0;entryX=0.5;entryY=0;entryDx=0;entryDy=0;curved=1;" parent="1" source="lYXRGoFwwgHIRX3_Q1wA-403" target="lYXRGoFwwgHIRX3_Q1wA-403" edge="1">
          <mxGeometry relative="1" as="geometry">
            <Array as="points">
              <mxPoint x="817" y="338" />
              <mxPoint x="817" y="295" />
              <mxPoint x="787" y="295" />
            </Array>
          </mxGeometry>
        </mxCell>
        <mxCell id="lYXRGoFwwgHIRX3_Q1wA-406" style="edgeStyle=orthogonalEdgeStyle;rounded=0;orthogonalLoop=1;jettySize=auto;html=1;exitX=1;exitY=0.5;exitDx=0;exitDy=0;entryX=0;entryY=0.5;entryDx=0;entryDy=0;" parent="1" source="lYXRGoFwwgHIRX3_Q1wA-407" target="lYXRGoFwwgHIRX3_Q1wA-403" edge="1">
          <mxGeometry relative="1" as="geometry" />
        </mxCell>
        <mxCell id="lYXRGoFwwgHIRX3_Q1wA-407" value="21" style="ellipse;whiteSpace=wrap;html=1;aspect=fixed;fontSize=20;" parent="1" vertex="1">
          <mxGeometry x="679.94" y="332" width="40" height="40" as="geometry" />
        </mxCell>
        <mxCell id="lYXRGoFwwgHIRX3_Q1wA-408" value="&lt;span style=&quot;color: rgb(0, 0, 0); font-family: Helvetica; font-size: 20px; font-style: normal; font-variant-ligatures: normal; font-variant-caps: normal; font-weight: 400; letter-spacing: normal; orphans: 2; text-align: center; text-indent: 0px; text-transform: none; widows: 2; word-spacing: 0px; -webkit-text-stroke-width: 0px; background-color: rgb(251, 251, 251); text-decoration-thickness: initial; text-decoration-style: initial; text-decoration-color: initial; float: none; display: inline !important;&quot;&gt;&#39;a&#39;-&#39;z&#39;&lt;/span&gt;" style="text;whiteSpace=wrap;html=1;fontSize=20;" parent="1" vertex="1">
          <mxGeometry x="716.94" y="273" width="50" height="30" as="geometry" />
        </mxCell>
        <mxCell id="lYXRGoFwwgHIRX3_Q1wA-409" value="&lt;span style=&quot;color: rgb(0, 0, 0); font-family: Helvetica; font-size: 20px; font-style: normal; font-variant-ligatures: normal; font-variant-caps: normal; font-weight: 400; letter-spacing: normal; orphans: 2; text-align: center; text-indent: 0px; text-transform: none; widows: 2; word-spacing: 0px; -webkit-text-stroke-width: 0px; background-color: rgb(251, 251, 251); text-decoration-thickness: initial; text-decoration-style: initial; text-decoration-color: initial; float: none; display: inline !important;&quot;&gt;&#39;0&#39;-&#39;9&#39;&lt;/span&gt;" style="text;whiteSpace=wrap;html=1;fontSize=20;" parent="1" vertex="1">
          <mxGeometry x="716.94" y="297" width="50" height="30" as="geometry" />
        </mxCell>
        <mxCell id="lYXRGoFwwgHIRX3_Q1wA-410" value="&lt;div style=&quot;text-align: center; font-size: 20px;&quot;&gt;&lt;span style=&quot;background-color: initial; font-size: 20px;&quot;&gt;&#39;-&#39;&lt;/span&gt;&lt;/div&gt;" style="text;whiteSpace=wrap;html=1;fontSize=20;" parent="1" vertex="1">
          <mxGeometry x="731.44" y="318" width="21" height="30" as="geometry" />
        </mxCell>
        <mxCell id="lYXRGoFwwgHIRX3_Q1wA-412" value="&lt;span style=&quot;color: rgb(0, 0, 0); font-family: Helvetica; font-size: 20px; font-style: normal; font-variant-ligatures: normal; font-variant-caps: normal; font-weight: 400; letter-spacing: normal; orphans: 2; text-align: center; text-indent: 0px; text-transform: none; widows: 2; word-spacing: 0px; -webkit-text-stroke-width: 0px; background-color: rgb(251, 251, 251); text-decoration-thickness: initial; text-decoration-style: initial; text-decoration-color: initial; float: none; display: inline !important;&quot;&gt;&#39;/&#39;&lt;/span&gt;" style="text;whiteSpace=wrap;html=1;fontSize=20;" parent="1" vertex="1">
          <mxGeometry x="739.8800000000001" y="374.5" width="10" height="30" as="geometry" />
        </mxCell>
        <mxCell id="0ZgamWlEDnW_xhG5bRAQ-5" value="" style="curved=1;endArrow=classic;html=1;rounded=0;entryX=0;entryY=0.5;entryDx=0;entryDy=0;exitX=0.5;exitY=0;exitDx=0;exitDy=0;" parent="1" source="lYXRGoFwwgHIRX3_Q1wA-76" target="lYXRGoFwwgHIRX3_Q1wA-76" edge="1">
          <mxGeometry width="50" height="50" relative="1" as="geometry">
            <mxPoint x="314.0821356237311" y="215.85786437626916" as="sourcePoint" />
            <mxPoint x="285.797864376269" y="215.85786437626894" as="targetPoint" />
            <Array as="points">
              <mxPoint x="570" y="162" />
              <mxPoint x="510" y="202" />
            </Array>
          </mxGeometry>
        </mxCell>
        <mxCell id="0ZgamWlEDnW_xhG5bRAQ-8" value="" style="curved=1;endArrow=classic;html=1;rounded=0;exitX=0;exitY=1;exitDx=0;exitDy=0;entryX=0;entryY=0;entryDx=0;entryDy=0;" parent="1" source="lYXRGoFwwgHIRX3_Q1wA-76" target="lYXRGoFwwgHIRX3_Q1wA-113" edge="1">
          <mxGeometry width="50" height="50" relative="1" as="geometry">
            <mxPoint x="480" y="312" as="sourcePoint" />
            <mxPoint x="530" y="262" as="targetPoint" />
            <Array as="points">
              <mxPoint x="460" y="260" />
              <mxPoint x="120" y="252" />
            </Array>
          </mxGeometry>
        </mxCell>
        <mxCell id="0ZgamWlEDnW_xhG5bRAQ-9" value="&lt;span style=&quot;color: rgb(0, 0, 0); font-family: Helvetica; font-size: 20px; font-style: normal; font-variant-ligatures: normal; font-variant-caps: normal; font-weight: 400; letter-spacing: normal; orphans: 2; text-align: center; text-indent: 0px; text-transform: none; widows: 2; word-spacing: 0px; -webkit-text-stroke-width: 0px; background-color: rgb(251, 251, 251); text-decoration-thickness: initial; text-decoration-style: initial; text-decoration-color: initial; float: none; display: inline !important;&quot;&gt;&#39;.&#39;&lt;/span&gt;" style="text;whiteSpace=wrap;html=1;fontSize=20;" parent="1" vertex="1">
          <mxGeometry x="384.94000000000005" y="224" width="10" height="28" as="geometry" />
        </mxCell>
        <mxCell id="0ZgamWlEDnW_xhG5bRAQ-11" value="" style="curved=1;endArrow=classic;html=1;rounded=0;entryX=1;entryY=0;entryDx=0;entryDy=0;exitX=0.5;exitY=1;exitDx=0;exitDy=0;" parent="1" source="lYXRGoFwwgHIRX3_Q1wA-28" target="lYXRGoFwwgHIRX3_Q1wA-76" edge="1">
          <mxGeometry width="50" height="50" relative="1" as="geometry">
            <mxPoint x="450" y="262" as="sourcePoint" />
            <mxPoint x="500" y="212" as="targetPoint" />
            <Array as="points">
              <mxPoint x="730" y="202" />
              <mxPoint x="610" y="182" />
            </Array>
          </mxGeometry>
        </mxCell>
        <mxCell id="0ZgamWlEDnW_xhG5bRAQ-13" value="" style="curved=1;endArrow=classic;html=1;rounded=0;entryX=0;entryY=0.5;entryDx=0;entryDy=0;exitX=0;exitY=1;exitDx=0;exitDy=0;" parent="1" source="lYXRGoFwwgHIRX3_Q1wA-244" target="lYXRGoFwwgHIRX3_Q1wA-113" edge="1">
          <mxGeometry width="50" height="50" relative="1" as="geometry">
            <mxPoint x="70" y="522" as="sourcePoint" />
            <mxPoint x="120" y="472" as="targetPoint" />
            <Array as="points">
              <mxPoint x="120" y="602" />
              <mxPoint x="40" y="382" />
            </Array>
          </mxGeometry>
        </mxCell>
        <mxCell id="wh4T6HFwH8I5xNPA9dwr-1" value="" style="endArrow=classic;html=1;rounded=0;entryX=0.5;entryY=0;entryDx=0;entryDy=0;" parent="1" target="lYXRGoFwwgHIRX3_Q1wA-19" edge="1">
          <mxGeometry width="50" height="50" relative="1" as="geometry">
            <mxPoint x="140" y="80" as="sourcePoint" />
            <mxPoint x="610" y="220" as="targetPoint" />
          </mxGeometry>
        </mxCell>
        <mxCell id="Ctn4a2YHSWsJAqv3MHbM-1" value="E" style="ellipse;whiteSpace=wrap;html=1;aspect=fixed;fontSize=20;fillColor=#f8cecc;strokeColor=#b85450;" vertex="1" parent="1">
          <mxGeometry x="279.94" y="10" width="40" height="40" as="geometry" />
        </mxCell>
        <mxCell id="Ctn4a2YHSWsJAqv3MHbM-8" value="E" style="ellipse;whiteSpace=wrap;html=1;aspect=fixed;fontSize=20;fillColor=#f8cecc;strokeColor=#b85450;" vertex="1" parent="1">
          <mxGeometry x="919.94" y="10" width="40" height="40" as="geometry" />
        </mxCell>
        <mxCell id="Ctn4a2YHSWsJAqv3MHbM-14" value="E" style="ellipse;whiteSpace=wrap;html=1;aspect=fixed;fontSize=20;fillColor=#f8cecc;strokeColor=#b85450;" vertex="1" parent="1">
          <mxGeometry x="649.94" y="10" width="40" height="40" as="geometry" />
        </mxCell>
        <mxCell id="Ctn4a2YHSWsJAqv3MHbM-15" value="" style="curved=1;endArrow=classic;html=1;rounded=0;exitX=0;exitY=0;exitDx=0;exitDy=0;entryX=0;entryY=0.5;entryDx=0;entryDy=0;fillColor=#f8cecc;strokeColor=#b85450;" edge="1" parent="1" source="lYXRGoFwwgHIRX3_Q1wA-25" target="Ctn4a2YHSWsJAqv3MHbM-14">
          <mxGeometry width="50" height="50" relative="1" as="geometry">
            <mxPoint x="500" y="80" as="sourcePoint" />
            <mxPoint x="550" y="30" as="targetPoint" />
            <Array as="points">
              <mxPoint x="490" y="80" />
              <mxPoint x="540" y="20" />
            </Array>
          </mxGeometry>
        </mxCell>
        <mxCell id="Ctn4a2YHSWsJAqv3MHbM-21" value="E" style="ellipse;whiteSpace=wrap;html=1;aspect=fixed;fontSize=20;fillColor=#f8cecc;strokeColor=#b85450;direction=south;" vertex="1" parent="1">
          <mxGeometry x="614.94" y="264.5" width="40" height="40" as="geometry" />
        </mxCell>
        <mxCell id="Ctn4a2YHSWsJAqv3MHbM-23" value="" style="endArrow=classic;html=1;entryX=0;entryY=1;entryDx=0;entryDy=0;exitX=1;exitY=1;exitDx=0;exitDy=0;curved=1;fillColor=#f8cecc;strokeColor=#b85450;" edge="1" parent="1" source="lYXRGoFwwgHIRX3_Q1wA-76" target="Ctn4a2YHSWsJAqv3MHbM-21">
          <mxGeometry width="50" height="50" relative="1" as="geometry">
            <mxPoint x="560" y="390" as="sourcePoint" />
            <mxPoint x="610" y="340" as="targetPoint" />
          </mxGeometry>
        </mxCell>
        <mxCell id="Ctn4a2YHSWsJAqv3MHbM-27" value="E" style="ellipse;whiteSpace=wrap;html=1;aspect=fixed;fontSize=20;fillColor=#f8cecc;strokeColor=#b85450;direction=south;" vertex="1" parent="1">
          <mxGeometry x="209.94000000000005" y="630" width="40" height="40" as="geometry" />
        </mxCell>
        <mxCell id="Ctn4a2YHSWsJAqv3MHbM-33" value="E" style="ellipse;whiteSpace=wrap;html=1;aspect=fixed;fontSize=20;fillColor=#f8cecc;strokeColor=#b85450;direction=south;" vertex="1" parent="1">
          <mxGeometry x="956.94" y="318" width="40" height="40" as="geometry" />
        </mxCell>
        <mxCell id="Ctn4a2YHSWsJAqv3MHbM-36" value="" style="curved=1;endArrow=classic;html=1;rounded=0;entryX=0.5;entryY=1;entryDx=0;entryDy=0;exitX=0.5;exitY=0;exitDx=0;exitDy=0;fillColor=#f8cecc;strokeColor=#b85450;" edge="1" parent="1" source="lYXRGoFwwgHIRX3_Q1wA-333" target="Ctn4a2YHSWsJAqv3MHbM-33">
          <mxGeometry width="50" height="50" relative="1" as="geometry">
            <mxPoint x="900" y="420" as="sourcePoint" />
            <mxPoint x="950" y="370" as="targetPoint" />
            <Array as="points">
              <mxPoint x="830" y="420" />
              <mxPoint x="870" y="350" />
            </Array>
          </mxGeometry>
        </mxCell>
        <mxCell id="Ctn4a2YHSWsJAqv3MHbM-37" value="" style="curved=1;endArrow=classic;html=1;rounded=0;entryX=1;entryY=1;entryDx=0;entryDy=0;exitX=0;exitY=0;exitDx=0;exitDy=0;fillColor=#f8cecc;strokeColor=#b85450;" edge="1" parent="1" source="lYXRGoFwwgHIRX3_Q1wA-336" target="Ctn4a2YHSWsJAqv3MHbM-33">
          <mxGeometry width="50" height="50" relative="1" as="geometry">
            <mxPoint x="920" y="430" as="sourcePoint" />
            <mxPoint x="970" y="380" as="targetPoint" />
            <Array as="points">
              <mxPoint x="830" y="490" />
              <mxPoint x="920" y="380" />
            </Array>
          </mxGeometry>
        </mxCell>
        <mxCell id="Ctn4a2YHSWsJAqv3MHbM-41" value="E" style="ellipse;whiteSpace=wrap;html=1;aspect=fixed;fontSize=20;fillColor=#f8cecc;strokeColor=#b85450;direction=south;" vertex="1" parent="1">
          <mxGeometry x="559.94" y="730" width="40" height="40" as="geometry" />
        </mxCell>
        <mxCell id="Ctn4a2YHSWsJAqv3MHbM-45" value="E" style="ellipse;whiteSpace=wrap;html=1;aspect=fixed;fontSize=20;fillColor=#f8cecc;strokeColor=#b85450;direction=south;" vertex="1" parent="1">
          <mxGeometry x="986.94" y="750" width="40" height="40" as="geometry" />
        </mxCell>
        <mxCell id="Ctn4a2YHSWsJAqv3MHbM-50" value="E" style="ellipse;whiteSpace=wrap;html=1;aspect=fixed;fontSize=20;fillColor=#f8cecc;strokeColor=#b85450;direction=south;" vertex="1" parent="1">
          <mxGeometry x="1113" y="750" width="40" height="40" as="geometry" />
        </mxCell>
        <mxCell id="Ctn4a2YHSWsJAqv3MHbM-52" value="&lt;span style=&quot;font-family: Helvetica; font-size: 20px; font-style: normal; font-variant-ligatures: normal; font-variant-caps: normal; font-weight: 400; letter-spacing: normal; orphans: 2; text-align: center; text-indent: 0px; text-transform: none; widows: 2; word-spacing: 0px; -webkit-text-stroke-width: 0px; background-color: rgb(251, 251, 251); text-decoration-thickness: initial; text-decoration-style: initial; text-decoration-color: initial; float: none; display: inline !important;&quot;&gt;L/{&#39;&quot;&#39;}&lt;/span&gt;" style="text;whiteSpace=wrap;html=1;fontSize=20;fontColor=#b85450;labelBorderColor=none;" vertex="1" parent="1">
          <mxGeometry x="130" y="40" width="20" height="30" as="geometry" />
        </mxCell>
        <mxCell id="Ctn4a2YHSWsJAqv3MHbM-53" value="&lt;span style=&quot;font-family: Helvetica; font-size: 20px; font-style: normal; font-variant-ligatures: normal; font-variant-caps: normal; font-weight: 400; letter-spacing: normal; orphans: 2; text-align: center; text-indent: 0px; text-transform: none; widows: 2; word-spacing: 0px; -webkit-text-stroke-width: 0px; background-color: rgb(251, 251, 251); text-decoration-thickness: initial; text-decoration-style: initial; text-decoration-color: initial; float: none; display: inline !important;&quot;&gt;L/{&#39;h&#39;}&lt;/span&gt;" style="text;whiteSpace=wrap;html=1;fontSize=20;fontColor=#b85450;labelBorderColor=none;" vertex="1" parent="1">
          <mxGeometry x="199.94" y="50" width="20" height="30" as="geometry" />
        </mxCell>
        <mxCell id="Ctn4a2YHSWsJAqv3MHbM-54" value="&lt;span style=&quot;font-family: Helvetica; font-size: 20px; font-style: normal; font-variant-ligatures: normal; font-variant-caps: normal; font-weight: 400; letter-spacing: normal; orphans: 2; text-align: center; text-indent: 0px; text-transform: none; widows: 2; word-spacing: 0px; -webkit-text-stroke-width: 0px; background-color: rgb(251, 251, 251); text-decoration-thickness: initial; text-decoration-style: initial; text-decoration-color: initial; float: none; display: inline !important;&quot;&gt;L/{&#39;t&#39;}&lt;/span&gt;" style="text;whiteSpace=wrap;html=1;fontSize=20;fontColor=#b85450;labelBorderColor=none;" vertex="1" parent="1">
          <mxGeometry x="299.94" y="90" width="20" height="30" as="geometry" />
        </mxCell>
        <mxCell id="Ctn4a2YHSWsJAqv3MHbM-56" value="&lt;span style=&quot;font-family: Helvetica; font-size: 20px; font-style: normal; font-variant-ligatures: normal; font-variant-caps: normal; font-weight: 400; letter-spacing: normal; orphans: 2; text-align: center; text-indent: 0px; text-transform: none; widows: 2; word-spacing: 0px; -webkit-text-stroke-width: 0px; background-color: rgb(251, 251, 251); text-decoration-thickness: initial; text-decoration-style: initial; text-decoration-color: initial; float: none; display: inline !important;&quot;&gt;L/{&#39;p&#39;}&lt;/span&gt;" style="text;whiteSpace=wrap;html=1;fontSize=20;fontColor=#b85450;labelBorderColor=none;" vertex="1" parent="1">
          <mxGeometry x="419.94000000000005" y="20" width="20" height="30" as="geometry" />
        </mxCell>
        <mxCell id="Ctn4a2YHSWsJAqv3MHbM-57" value="&lt;span style=&quot;font-family: Helvetica; font-size: 20px; font-style: normal; font-variant-ligatures: normal; font-variant-caps: normal; font-weight: 400; letter-spacing: normal; orphans: 2; text-align: center; text-indent: 0px; text-transform: none; widows: 2; word-spacing: 0px; -webkit-text-stroke-width: 0px; background-color: rgb(251, 251, 251); text-decoration-thickness: initial; text-decoration-style: initial; text-decoration-color: initial; float: none; display: inline !important;&quot;&gt;L/{&#39;s&#39;, &#39;:&#39;}&lt;/span&gt;" style="text;whiteSpace=wrap;html=1;fontSize=20;fontColor=#b85450;labelBorderColor=none;" vertex="1" parent="1">
          <mxGeometry x="479.94" width="80.06" height="30" as="geometry" />
        </mxCell>
        <mxCell id="Ctn4a2YHSWsJAqv3MHbM-58" value="&lt;span style=&quot;font-family: Helvetica; font-size: 20px; font-style: normal; font-variant-ligatures: normal; font-variant-caps: normal; font-weight: 400; letter-spacing: normal; orphans: 2; text-align: center; text-indent: 0px; text-transform: none; widows: 2; word-spacing: 0px; -webkit-text-stroke-width: 0px; background-color: rgb(251, 251, 251); text-decoration-thickness: initial; text-decoration-style: initial; text-decoration-color: initial; float: none; display: inline !important;&quot;&gt;L/{&#39;.&#39;}&lt;/span&gt;" style="text;whiteSpace=wrap;html=1;fontSize=20;fontColor=#b85450;labelBorderColor=none;" vertex="1" parent="1">
          <mxGeometry x="549.94" y="30" width="20" height="30" as="geometry" />
        </mxCell>
        <mxCell id="Ctn4a2YHSWsJAqv3MHbM-59" value="&lt;span style=&quot;font-family: Helvetica; font-size: 20px; font-style: normal; font-variant-ligatures: normal; font-variant-caps: normal; font-weight: 400; letter-spacing: normal; orphans: 2; text-align: center; text-indent: 0px; text-transform: none; widows: 2; word-spacing: 0px; -webkit-text-stroke-width: 0px; background-color: rgb(251, 251, 251); text-decoration-thickness: initial; text-decoration-style: initial; text-decoration-color: initial; float: none; display: inline !important;&quot;&gt;L/{&#39;/&#39;}&lt;/span&gt;" style="text;whiteSpace=wrap;html=1;fontSize=20;fontColor=#b85450;labelBorderColor=none;" vertex="1" parent="1">
          <mxGeometry x="669.94" y="50" width="20" height="30" as="geometry" />
        </mxCell>
        <mxCell id="Ctn4a2YHSWsJAqv3MHbM-60" value="&lt;span style=&quot;font-family: Helvetica; font-size: 20px; font-style: normal; font-variant-ligatures: normal; font-variant-caps: normal; font-weight: 400; letter-spacing: normal; orphans: 2; text-align: center; text-indent: 0px; text-transform: none; widows: 2; word-spacing: 0px; -webkit-text-stroke-width: 0px; background-color: rgb(251, 251, 251); text-decoration-thickness: initial; text-decoration-style: initial; text-decoration-color: initial; float: none; display: inline !important;&quot;&gt;L/{&#39;/&#39;}&lt;/span&gt;" style="text;whiteSpace=wrap;html=1;fontSize=20;fontColor=#b85450;labelBorderColor=none;" vertex="1" parent="1">
          <mxGeometry x="746.94" y="30" width="20" height="30" as="geometry" />
        </mxCell>
        <mxCell id="Ctn4a2YHSWsJAqv3MHbM-61" value="&lt;span style=&quot;font-family: Helvetica; font-size: 20px; font-style: normal; font-variant-ligatures: normal; font-variant-caps: normal; font-weight: 400; letter-spacing: normal; orphans: 2; text-align: center; text-indent: 0px; text-transform: none; widows: 2; word-spacing: 0px; -webkit-text-stroke-width: 0px; background-color: rgb(251, 251, 251); text-decoration-thickness: initial; text-decoration-style: initial; text-decoration-color: initial; float: none; display: inline !important;&quot;&gt;L/{&#39;a&#39;..&#39;z&#39;, &#39;0&#39;..&#39;9&#39;}&lt;br&gt;&lt;/span&gt;" style="text;whiteSpace=wrap;html=1;fontSize=20;fontColor=#b85450;labelBorderColor=none;" vertex="1" parent="1">
          <mxGeometry x="806.94" y="50" width="80" height="30" as="geometry" />
        </mxCell>
        <mxCell id="Ctn4a2YHSWsJAqv3MHbM-62" value="&lt;span style=&quot;font-family: Helvetica; font-size: 20px; font-style: normal; font-variant-ligatures: normal; font-variant-caps: normal; font-weight: 400; letter-spacing: normal; orphans: 2; text-align: center; text-indent: 0px; text-transform: none; widows: 2; word-spacing: 0px; -webkit-text-stroke-width: 0px; background-color: rgb(251, 251, 251); text-decoration-thickness: initial; text-decoration-style: initial; text-decoration-color: initial; float: none; display: inline !important;&quot;&gt;L/{&#39;w&#39;}&lt;/span&gt;" style="text;whiteSpace=wrap;html=1;fontSize=20;fontColor=#b85450;labelBorderColor=none;" vertex="1" parent="1">
          <mxGeometry x="879.8800000000001" y="90" width="20" height="30" as="geometry" />
        </mxCell>
        <mxCell id="Ctn4a2YHSWsJAqv3MHbM-68" value="&lt;span style=&quot;font-family: Helvetica; font-size: 20px; font-style: normal; font-variant-ligatures: normal; font-variant-caps: normal; font-weight: 400; letter-spacing: normal; orphans: 2; text-align: center; text-indent: 0px; text-transform: none; widows: 2; word-spacing: 0px; -webkit-text-stroke-width: 0px; background-color: rgb(251, 251, 251); text-decoration-thickness: initial; text-decoration-style: initial; text-decoration-color: initial; float: none; display: inline !important;&quot;&gt;L/{&#39;t&#39;}&lt;/span&gt;" style="text;whiteSpace=wrap;html=1;fontSize=20;fontColor=#b85450;labelBorderColor=none;" vertex="1" parent="1">
          <mxGeometry x="359.94" y="60" width="20" height="30" as="geometry" />
        </mxCell>
        <mxCell id="Ctn4a2YHSWsJAqv3MHbM-71" value="&lt;span style=&quot;font-family: Helvetica; font-size: 20px; font-style: normal; font-variant-ligatures: normal; font-variant-caps: normal; font-weight: 400; letter-spacing: normal; orphans: 2; text-align: center; text-indent: 0px; text-transform: none; widows: 2; word-spacing: 0px; -webkit-text-stroke-width: 0px; background-color: rgb(251, 251, 251); text-decoration-thickness: initial; text-decoration-style: initial; text-decoration-color: initial; float: none; display: inline !important;&quot;&gt;L/{&#39;w&#39;}&lt;/span&gt;" style="text;whiteSpace=wrap;html=1;fontSize=20;fontColor=#b85450;labelBorderColor=none;" vertex="1" parent="1">
          <mxGeometry x="939.94" y="90" width="20" height="30" as="geometry" />
        </mxCell>
        <mxCell id="Ctn4a2YHSWsJAqv3MHbM-72" value="&lt;span style=&quot;font-family: Helvetica; font-size: 20px; font-style: normal; font-variant-ligatures: normal; font-variant-caps: normal; font-weight: 400; letter-spacing: normal; orphans: 2; text-align: center; text-indent: 0px; text-transform: none; widows: 2; word-spacing: 0px; -webkit-text-stroke-width: 0px; background-color: rgb(251, 251, 251); text-decoration-thickness: initial; text-decoration-style: initial; text-decoration-color: initial; float: none; display: inline !important;&quot;&gt;L/{&#39;.&#39;}&lt;/span&gt;" style="text;whiteSpace=wrap;html=1;fontSize=20;fontColor=#b85450;labelBorderColor=none;" vertex="1" parent="1">
          <mxGeometry x="1011.8800000000001" y="70" width="20" height="30" as="geometry" />
        </mxCell>
        <mxCell id="Ctn4a2YHSWsJAqv3MHbM-73" value="&lt;span style=&quot;font-family: Helvetica; font-size: 20px; font-style: normal; font-variant-ligatures: normal; font-variant-caps: normal; font-weight: 400; letter-spacing: normal; orphans: 2; text-align: center; text-indent: 0px; text-transform: none; widows: 2; word-spacing: 0px; -webkit-text-stroke-width: 0px; background-color: rgb(251, 251, 251); text-decoration-thickness: initial; text-decoration-style: initial; text-decoration-color: initial; float: none; display: inline !important;&quot;&gt;L/{&#39;a&#39;..&#39;z&#39;, &#39;0&#39;..&#39;9&#39;}&lt;br&gt;&lt;/span&gt;" style="text;whiteSpace=wrap;html=1;fontSize=20;fontColor=#b85450;labelBorderColor=none;" vertex="1" parent="1">
          <mxGeometry x="1079.94" y="15" width="80" height="30" as="geometry" />
        </mxCell>
        <mxCell id="Ctn4a2YHSWsJAqv3MHbM-74" value="&lt;span style=&quot;font-family: Helvetica; font-size: 20px; font-style: normal; font-variant-ligatures: normal; font-variant-caps: normal; font-weight: 400; letter-spacing: normal; orphans: 2; text-align: center; text-indent: 0px; text-transform: none; widows: 2; word-spacing: 0px; -webkit-text-stroke-width: 0px; background-color: rgb(251, 251, 251); text-decoration-thickness: initial; text-decoration-style: initial; text-decoration-color: initial; float: none; display: inline !important;&quot;&gt;L/{&#39;a&#39;..&#39;z&#39;, &#39;0&#39;..&#39;9&#39;, &#39;-&#39;, &#39;.&#39;}&lt;br&gt;&lt;/span&gt;" style="text;whiteSpace=wrap;html=1;fontSize=20;fontColor=#b85450;labelBorderColor=none;" vertex="1" parent="1">
          <mxGeometry x="410" y="249.5" width="194.97" height="30" as="geometry" />
        </mxCell>
        <mxCell id="Ctn4a2YHSWsJAqv3MHbM-75" value="&lt;span style=&quot;font-family: Helvetica; font-size: 20px; font-style: normal; font-variant-ligatures: normal; font-variant-caps: normal; font-weight: 400; letter-spacing: normal; orphans: 2; text-align: center; text-indent: 0px; text-transform: none; widows: 2; word-spacing: 0px; -webkit-text-stroke-width: 0px; background-color: rgb(251, 251, 251); text-decoration-thickness: initial; text-decoration-style: initial; text-decoration-color: initial; float: none; display: inline !important;&quot;&gt;L/{&#39;a&#39;..&#39;z&#39;, &#39;0&#39;..&#39;9&#39;, &#39;-&#39;, &#39;/&#39;, &#39;.&#39;}&lt;br&gt;&lt;/span&gt;" style="text;whiteSpace=wrap;html=1;fontSize=20;fontColor=#b85450;labelBorderColor=none;" vertex="1" parent="1">
          <mxGeometry x="773.8199999999999" y="250" width="223.12" height="30" as="geometry" />
        </mxCell>
        <mxCell id="Ctn4a2YHSWsJAqv3MHbM-76" value="&lt;span style=&quot;font-family: Helvetica; font-size: 20px; font-style: normal; font-variant-ligatures: normal; font-variant-caps: normal; font-weight: 400; letter-spacing: normal; orphans: 2; text-align: center; text-indent: 0px; text-transform: none; widows: 2; word-spacing: 0px; -webkit-text-stroke-width: 0px; background-color: rgb(251, 251, 251); text-decoration-thickness: initial; text-decoration-style: initial; text-decoration-color: initial; float: none; display: inline !important;&quot;&gt;L/{&#39;a&#39;..&#39;z&#39;, &#39;0&#39;..&#39;9&#39;, &#39;-&#39;}&lt;br&gt;&lt;/span&gt;" style="text;whiteSpace=wrap;html=1;fontSize=20;fontColor=#b85450;labelBorderColor=none;" vertex="1" parent="1">
          <mxGeometry x="599.88" y="414" width="170" height="30" as="geometry" />
        </mxCell>
        <mxCell id="Ctn4a2YHSWsJAqv3MHbM-80" value="E" style="ellipse;whiteSpace=wrap;html=1;aspect=fixed;fontSize=20;fillColor=#f8cecc;strokeColor=#b85450;direction=south;" vertex="1" parent="1">
          <mxGeometry x="569.94" y="454.5" width="40" height="40" as="geometry" />
        </mxCell>
        <mxCell id="Ctn4a2YHSWsJAqv3MHbM-84" value="" style="curved=1;endArrow=classic;html=1;rounded=0;exitX=0;exitY=1;exitDx=0;exitDy=0;entryX=0;entryY=0.5;entryDx=0;entryDy=0;fillColor=#f8cecc;strokeColor=#b85450;" edge="1" parent="1" source="lYXRGoFwwgHIRX3_Q1wA-407" target="Ctn4a2YHSWsJAqv3MHbM-80">
          <mxGeometry width="50" height="50" relative="1" as="geometry">
            <mxPoint x="610" y="440" as="sourcePoint" />
            <mxPoint x="660" y="390" as="targetPoint" />
            <Array as="points">
              <mxPoint x="630" y="390" />
              <mxPoint x="590" y="420" />
            </Array>
          </mxGeometry>
        </mxCell>
        <mxCell id="Ctn4a2YHSWsJAqv3MHbM-85" value="" style="curved=1;endArrow=classic;html=1;rounded=0;entryX=0.5;entryY=0;entryDx=0;entryDy=0;exitX=0;exitY=0;exitDx=0;exitDy=0;fillColor=#f8cecc;strokeColor=#b85450;" edge="1" parent="1" source="lYXRGoFwwgHIRX3_Q1wA-403" target="Ctn4a2YHSWsJAqv3MHbM-21">
          <mxGeometry width="50" height="50" relative="1" as="geometry">
            <mxPoint x="680" y="310" as="sourcePoint" />
            <mxPoint x="730" y="260" as="targetPoint" />
            <Array as="points">
              <mxPoint x="780" y="285" />
              <mxPoint x="720" y="250" />
            </Array>
          </mxGeometry>
        </mxCell>
        <mxCell id="Ctn4a2YHSWsJAqv3MHbM-86" value="&lt;span style=&quot;font-family: Helvetica; font-size: 20px; font-style: normal; font-variant-ligatures: normal; font-variant-caps: normal; font-weight: 400; letter-spacing: normal; orphans: 2; text-align: center; text-indent: 0px; text-transform: none; widows: 2; word-spacing: 0px; -webkit-text-stroke-width: 0px; background-color: rgb(251, 251, 251); text-decoration-thickness: initial; text-decoration-style: initial; text-decoration-color: initial; float: none; display: inline !important;&quot;&gt;L/{&#39;a&#39;..&#39;z&#39;, &#39;0&#39;..&#39;9&#39;}&lt;br&gt;&lt;/span&gt;" style="text;whiteSpace=wrap;html=1;fontSize=20;fontColor=#b85450;labelBorderColor=none;" vertex="1" parent="1">
          <mxGeometry x="20.000000000000057" y="549" width="80" height="30" as="geometry" />
        </mxCell>
        <mxCell id="Ctn4a2YHSWsJAqv3MHbM-87" value="&lt;span style=&quot;font-family: Helvetica; font-size: 20px; font-style: normal; font-variant-ligatures: normal; font-variant-caps: normal; font-weight: 400; letter-spacing: normal; orphans: 2; text-align: center; text-indent: 0px; text-transform: none; widows: 2; word-spacing: 0px; -webkit-text-stroke-width: 0px; background-color: rgb(251, 251, 251); text-decoration-thickness: initial; text-decoration-style: initial; text-decoration-color: initial; float: none; display: inline !important;&quot;&gt;L/{&#39;a&#39;..&#39;z&#39;, &#39;0&#39;..&#39;9&#39;, &#39;-&#39;, &#39;.&#39;}&lt;br&gt;&lt;/span&gt;" style="text;whiteSpace=wrap;html=1;fontSize=20;fontColor=#b85450;labelBorderColor=none;" vertex="1" parent="1">
          <mxGeometry x="309.94" y="558" width="90.06" height="30" as="geometry" />
        </mxCell>
        <mxCell id="Ctn4a2YHSWsJAqv3MHbM-89" value="&lt;span style=&quot;font-family: Helvetica; font-size: 20px; font-style: normal; font-variant-ligatures: normal; font-variant-caps: normal; font-weight: 400; letter-spacing: normal; orphans: 2; text-align: center; text-indent: 0px; text-transform: none; widows: 2; word-spacing: 0px; -webkit-text-stroke-width: 0px; background-color: rgb(251, 251, 251); text-decoration-thickness: initial; text-decoration-style: initial; text-decoration-color: initial; float: none; display: inline !important;&quot;&gt;L/{&#39;a&#39;..&#39;z&#39;, &#39;0&#39;..&#39;9&#39;, &#39;-&#39;, &#39;.&#39;}&lt;br&gt;&lt;/span&gt;" style="text;whiteSpace=wrap;html=1;fontSize=20;fontColor=#b85450;labelBorderColor=none;" vertex="1" parent="1">
          <mxGeometry x="384.88" y="615" width="115.12" height="30" as="geometry" />
        </mxCell>
        <mxCell id="Ctn4a2YHSWsJAqv3MHbM-90" value="&lt;span style=&quot;font-family: Helvetica; font-size: 20px; font-style: normal; font-variant-ligatures: normal; font-variant-caps: normal; font-weight: 400; letter-spacing: normal; orphans: 2; text-align: center; text-indent: 0px; text-transform: none; widows: 2; word-spacing: 0px; -webkit-text-stroke-width: 0px; background-color: rgb(251, 251, 251); text-decoration-thickness: initial; text-decoration-style: initial; text-decoration-color: initial; float: none; display: inline !important;&quot;&gt;L/{&#39;a&#39;..&#39;z&#39;, &#39;0&#39;..&#39;9&#39;, &#39;-&#39;, &#39;.&#39;}&lt;br&gt;&lt;/span&gt;" style="text;whiteSpace=wrap;html=1;fontSize=20;fontColor=#b85450;labelBorderColor=none;" vertex="1" parent="1">
          <mxGeometry x="539.94" y="528" width="95.15" height="30" as="geometry" />
        </mxCell>
        <mxCell id="Ctn4a2YHSWsJAqv3MHbM-92" value="L/{&#39;b&#39;, &#39;j&#39;, &#39;p&#39;}" style="text;whiteSpace=wrap;html=1;fontSize=20;fontColor=#b85450;labelBorderColor=none;" vertex="1" parent="1">
          <mxGeometry x="524.9399999999999" y="648" width="60.12" height="30" as="geometry" />
        </mxCell>
        <mxCell id="Ctn4a2YHSWsJAqv3MHbM-94" value="L/{&#39;m&#39;}" style="text;whiteSpace=wrap;html=1;fontSize=20;fontColor=#b85450;labelBorderColor=none;" vertex="1" parent="1">
          <mxGeometry x="619.8199999999999" y="678" width="60.12" height="30" as="geometry" />
        </mxCell>
        <mxCell id="Ctn4a2YHSWsJAqv3MHbM-95" value="L/{&#39;n&#39;}" style="text;whiteSpace=wrap;html=1;fontSize=20;fontColor=#b85450;labelBorderColor=none;" vertex="1" parent="1">
          <mxGeometry x="671.3199999999999" y="750" width="60.12" height="30" as="geometry" />
        </mxCell>
        <mxCell id="Ctn4a2YHSWsJAqv3MHbM-96" value="L/{&#39;g&#39;}" style="text;whiteSpace=wrap;html=1;fontSize=20;fontColor=#b85450;labelBorderColor=none;" vertex="1" parent="1">
          <mxGeometry x="819.9399999999999" y="740" width="60.12" height="30" as="geometry" />
        </mxCell>
        <mxCell id="Ctn4a2YHSWsJAqv3MHbM-97" value="L/{&#39;p&#39;}" style="text;whiteSpace=wrap;html=1;fontSize=20;fontColor=#b85450;labelBorderColor=none;" vertex="1" parent="1">
          <mxGeometry x="839.9399999999999" y="622" width="60.12" height="30" as="geometry" />
        </mxCell>
        <mxCell id="Ctn4a2YHSWsJAqv3MHbM-98" value="L/{&#39;&quot;&#39;}" style="text;whiteSpace=wrap;html=1;fontSize=20;fontColor=#b85450;labelBorderColor=none;" vertex="1" parent="1">
          <mxGeometry x="919.8199999999999" y="700" width="60.12" height="30" as="geometry" />
        </mxCell>
        <mxCell id="Ctn4a2YHSWsJAqv3MHbM-99" value="L/{&#39;&quot;&#39;}" style="text;whiteSpace=wrap;html=1;fontSize=20;fontColor=#b85450;labelBorderColor=none;" vertex="1" parent="1">
          <mxGeometry x="991.8199999999999" y="618" width="60.12" height="30" as="geometry" />
        </mxCell>
        <mxCell id="Ctn4a2YHSWsJAqv3MHbM-100" value="L/{&#39;&quot;&#39;}" style="text;whiteSpace=wrap;html=1;fontSize=20;fontColor=#b85450;labelBorderColor=none;" vertex="1" parent="1">
          <mxGeometry x="1019.8199999999999" y="438.5" width="60.12" height="30" as="geometry" />
        </mxCell>
        <mxCell id="Ctn4a2YHSWsJAqv3MHbM-101" value="L/{&#39;p&#39;}" style="text;whiteSpace=wrap;html=1;fontSize=20;fontColor=#b85450;labelBorderColor=none;" vertex="1" parent="1">
          <mxGeometry x="879.8199999999999" y="309.5" width="60.12" height="30" as="geometry" />
        </mxCell>
        <mxCell id="Ctn4a2YHSWsJAqv3MHbM-102" value="L/{&#39;e&#39;,&lt;br&gt;&#39;g&#39;}" style="text;whiteSpace=wrap;html=1;fontSize=20;fontColor=#b85450;labelBorderColor=none;" vertex="1" parent="1">
          <mxGeometry x="855.38" y="372" width="60.12" height="30" as="geometry" />
        </mxCell>
        <mxCell id="Ctn4a2YHSWsJAqv3MHbM-103" value="L/{&#39;g&#39;}" style="text;whiteSpace=wrap;html=1;fontSize=20;fontColor=#b85450;labelBorderColor=none;" vertex="1" parent="1">
          <mxGeometry x="919.9399999999999" y="414" width="60.12" height="30" as="geometry" />
        </mxCell>
        <mxCell id="Ctn4a2YHSWsJAqv3MHbM-105" value="L" style="text;whiteSpace=wrap;html=1;fontSize=20;fontColor=#b85450;labelBorderColor=none;" vertex="1" parent="1">
          <mxGeometry x="1109.76" y="676" width="10.18" height="30" as="geometry" />
        </mxCell>
      </root>
    </mxGraphModel>
  </diagram>
</mxfile>
